<?xml version="1.0" encoding="utf-8"?>
<!-- Generator: Adobe Illustrator 27.5.0, SVG Export Plug-In . SVG Version: 6.00 Build 0)  -->
<svg version="1.1" id="Layer_1" xmlns="http://www.w3.org/2000/svg" xmlns:xlink="http://www.w3.org/1999/xlink" x="0px" y="0px"
	 viewBox="0 0 290.596 115.615" style="enable-background:new 0 0 290.596 115.615;" xml:space="preserve">
<g>
	<g>
		<path style="fill:#CD1E25;" d="M54.098,113.881c-1.392,0-2.302-0.582-2.805-1.045c-1.447-1.33-1.837-3.769-0.994-6.212
			c0.882-2.555,2.477-5.274,4.741-8.082c0.451-0.559,1.269-0.647,1.829-0.196c0.559,0.451,0.647,1.269,0.196,1.828
			c-2.075,2.573-3.524,5.028-4.307,7.298c-0.49,1.42-0.368,2.839,0.296,3.45c0.733,0.674,2.051,0.24,2.771-0.078
			c1.049-0.463,1.943-1.342,2.604-2.056c4.866-5.251,7.648-12.088,10.337-18.7c1.864-4.583,3.792-9.321,6.413-13.586
			c0.952-1.549,2.054-3.127,3.656-4.172c1.03-0.672,1.884-0.58,2.419-0.383c1.694,0.621,2.396,2.972,3.367,6.227
			c0.913,3.061,2.05,6.869,4.198,9.711c2.402,3.178,5.652,4.539,9.937,4.159c5.614-0.498,13.726-5.025,22.838-12.647
			c-2.615-4.507-4.945-9.409-6.977-14.687c-2.87-7.45-4.552-14.136-5.143-20.441c-0.681-7.261,0.595-12.879,3.792-16.698
			c2.24-2.676,5.855-4.305,9.453-4.246c2.897,0.046,5.378,1.201,6.985,3.251c1.018,1.299,1.598,2.781,1.916,4.354
			c1.525-3.242,3.453-6.306,5.71-9.052c2.083-2.533,4.268-4.125,6.495-4.733c2.97-0.809,5.767-0.286,8.087,1.515
			c4.028,3.125,5.791,9.389,5.724,13.886c-0.086,5.746-2.645,10.999-5.037,15.471c-3.914,7.317-13.222,18.522-23.162,27.881
			c-1.3,1.224-2.814,2.606-4.484,4.051c3.708,6.043,7.963,11.302,12.732,15.728c6.417,5.955,13.135,9.742,19.97,11.256
			c5.342,1.184,11.146,0.782,15.925-1.102c3.733-1.472,8.626-4.549,10.74-10.855c0.056-0.168,0.112-0.335,0.166-0.502
			c-1.677,0.202-3.451,0.164-5.313-0.116c-3.393-0.512-6.986-1.837-10.39-3.835c-4.833-2.835-8.738-6.348-11.606-10.439
			c-1.903-2.715-2.91-5.202-3.076-7.601c-0.227-3.27,1.238-6.305,3.73-7.733c3.978-2.279,8.803,0.121,11.724,2.868
			c1.33,1.251,2.53,2.647,3.574,4.153c0.072-2.06,0.354-4.112,0.842-6.1c0.31-1.264,0.77-2.702,1.826-3.785
			c2.167-2.224,5.785-1.881,8.03-0.265c2.36,1.698,3.486,4.451,4.128,6.374c2.215,6.637,2.306,14.414,0.297,22.729
			c0.176-0.084,0.349-0.172,0.521-0.264c2.895-1.555,5.323-4.429,6.837-8.093c1.544-3.736,2.008-7.846,2.239-11.009
			c0.454-6.208,0.225-12.573,0.002-18.729c-0.124-3.451-0.253-7.019-0.262-10.538c-0.04-16.301,2.915-24.332,5.141-28.955
			c1.85-3.841,4.444-6.93,7.501-8.931c3.532-2.312,7.523-3.019,11.541-2.044c3.442,0.835,6.451,2.865,8.944,6.034
			c2.624,3.335,3.97,7.048,4.637,9.575c0.701,2.656,1.258,5.32,1.848,8.14c0.554,2.648,1.126,5.385,1.851,8.249
			c0.176,0.696-0.245,1.403-0.942,1.58c-0.697,0.177-1.404-0.246-1.579-0.942c-0.738-2.916-1.316-5.681-1.875-8.355
			c-0.583-2.786-1.133-5.417-1.817-8.008c-0.867-3.284-2.307-6.269-4.166-8.631c-2.124-2.699-4.652-4.42-7.513-5.114
			c-7.576-1.838-13.277,3.742-16.087,9.577c-4.416,9.171-4.902,20.27-4.883,27.82c0.008,3.476,0.137,7.022,0.26,10.451
			c0.225,6.226,0.457,12.663-0.008,19.013c-0.246,3.357-0.744,7.734-2.429,11.813c-1.743,4.217-4.588,7.552-8.01,9.391
			c-0.83,0.446-1.697,0.811-2.598,1.096c-0.195,0.65-0.402,1.302-0.621,1.957c-1.925,5.742-6.162,10.046-12.252,12.447
			c-5.249,2.069-11.606,2.515-17.441,1.222c-7.292-1.616-14.416-5.616-21.176-11.889c-4.853-4.503-9.187-9.831-12.969-15.933
			c-7.15,5.943-16.427,12.315-23.961,12.983c-11.853,1.051-14.985-9.445-16.856-15.716c-0.482-1.614-1.2-4.02-1.728-4.491
			c-0.034,0.016-0.082,0.041-0.145,0.082c-1.107,0.722-1.944,1.864-2.861,3.355c-2.509,4.082-4.395,8.719-6.219,13.204
			c-2.778,6.828-5.65,13.889-10.839,19.488c-0.831,0.897-1.976,2.011-3.461,2.667C55.792,113.702,54.871,113.881,54.098,113.881z
			 M161.353,66.436c-0.776,0-1.531,0.173-2.23,0.573c-1.857,1.064-2.558,3.427-2.428,5.297c0.132,1.914,0.987,3.971,2.611,6.288
			c2.652,3.784,6.284,7.044,10.793,9.689c3.121,1.831,6.393,3.043,9.462,3.506c2.061,0.311,3.985,0.283,5.755-0.082
			c2.304-8.442,2.373-16.298,0.174-22.886c-0.839-2.512-1.849-4.128-3.18-5.086c-1.328-0.956-3.513-1.196-4.648-0.031
			c-0.619,0.635-0.925,1.62-1.163,2.59c-0.893,3.634-1.028,7.505-0.392,11.193c0.114,0.658-0.29,1.296-0.934,1.474
			c-0.644,0.179-1.318-0.16-1.56-0.783c-1.267-3.267-3.285-6.262-5.838-8.662C166.077,67.92,163.627,66.436,161.353,66.436z
			 M122.538,25.925c-2.74,0-5.584,1.292-7.278,3.316c-2.735,3.267-3.81,8.242-3.197,14.786c0.568,6.065,2.197,12.525,4.98,19.749
			c1.921,4.989,4.112,9.628,6.562,13.903c1.332-1.162,2.684-2.388,4.049-3.673c9.602-9.041,18.917-20.232,22.651-27.215
			c2.248-4.203,4.653-9.119,4.73-14.283c0.06-3.995-1.542-9.329-4.717-11.793c-1.674-1.298-3.628-1.655-5.809-1.06
			c-1.697,0.462-3.436,1.766-5.17,3.875c-3.362,4.09-5.947,8.931-7.476,14c-0.189,0.627-0.815,1.015-1.461,0.907
			c-0.646-0.109-1.11-0.681-1.083-1.335c0.138-3.408,0.116-6.654-1.661-8.92c-1.114-1.42-2.882-2.221-4.98-2.255
			C122.631,25.925,122.584,25.925,122.538,25.925z"/>
		<g>
			<g>
				<g>
					<path style="fill:#1E75BC;" d="M62.156,85.871l-11.674,16.957c-0.389,0.565,0.148,1.609,1.198,2.333
						c1.051,0.723,2.218,0.852,2.607,0.287l11.674-16.957L62.156,85.871z"/>
					<path style="fill:#22446A;" d="M53.45,105.896c-0.531,0-1.191-0.225-1.822-0.659c-1.11-0.764-1.647-1.845-1.222-2.462
						l11.727-17.033l3.958,2.725l-0.053,0.076l-11.674,16.957C54.181,105.767,53.853,105.896,53.45,105.896z M62.18,86.001
						l-11.621,16.88c-0.359,0.522,0.168,1.51,1.174,2.204c1.007,0.693,2.118,0.833,2.478,0.311l11.621-16.88L62.18,86.001z"/>
				</g>
				<path style="fill:#1E75BC;" d="M52.469,103.545c0.956-1.466,10.091-14.358,10.612-15.01c0.347-0.435,0.686-0.88,0.981-1.351
					l-0.302-0.208c-1.063,1.292-11.477,16.253-12.477,17.875c0.069,0.061,0.141,0.12,0.216,0.177
					C51.823,104.534,52.147,104.039,52.469,103.545z"/>
				<path style="opacity:0.41;fill:#1E75BC;" d="M63.042,86.481l-0.886-0.61l-11.674,16.957c-0.249,0.361-0.118,0.918,0.282,1.461
					C52.826,101.06,61.069,89.227,63.042,86.481z"/>
				<path style="fill:#1E75BC;" d="M53.257,105.789c0.461,0.046,0.84-0.064,1.031-0.341l11.674-16.957l-0.701-0.482
					C64.341,89.373,54.213,104.348,53.257,105.789z"/>
				<g>
					<path style="fill:#386698;" d="M65.962,88.491c-0.389,0.565-1.556,0.436-2.607-0.287c-1.051-0.723-1.587-1.768-1.198-2.333
						c0.389-0.565,1.556-0.437,2.607,0.287C65.814,86.882,66.351,87.926,65.962,88.491z"/>
					<path style="fill:#22446A;" d="M65.124,88.94c-0.531,0-1.191-0.225-1.822-0.659c-0.521-0.358-0.936-0.806-1.169-1.26
						c-0.243-0.472-0.262-0.899-0.053-1.202c0.424-0.617,1.626-0.501,2.736,0.263c1.11,0.764,1.647,1.845,1.222,2.462
						C65.855,88.81,65.527,88.94,65.124,88.94z M62.991,85.608c-0.339,0-0.611,0.103-0.758,0.316
						c-0.168,0.244-0.145,0.603,0.065,1.012c0.22,0.427,0.613,0.85,1.109,1.192c1.007,0.693,2.118,0.833,2.478,0.311l0,0
						c0.359-0.522-0.168-1.51-1.174-2.203C64.115,85.825,63.482,85.608,62.991,85.608z"/>
				</g>
				<g>
					<path style="fill:#386698;" d="M65.185,87.736c-0.202,0.293-0.807,0.227-1.353-0.149c-0.545-0.376-0.824-0.918-0.622-1.211
						c0.202-0.293,0.808-0.227,1.353,0.149C65.108,86.901,65.387,87.443,65.185,87.736z"/>
					<path style="fill:#22446A;" d="M64.753,88.012c-0.04,0-0.082-0.002-0.125-0.007c-0.271-0.03-0.572-0.151-0.848-0.341
						c-0.276-0.19-0.497-0.428-0.621-0.67c-0.134-0.26-0.143-0.498-0.025-0.67c0.235-0.341,0.886-0.285,1.482,0.125
						c0.276,0.19,0.497,0.428,0.621,0.67c0.134,0.26,0.143,0.498,0.025,0.67l0,0C65.161,87.934,64.983,88.012,64.753,88.012z
						 M63.641,86.285c-0.16,0-0.287,0.046-0.354,0.144c-0.077,0.112-0.064,0.283,0.037,0.479c0.111,0.215,0.31,0.429,0.561,0.602
						c0.251,0.173,0.522,0.283,0.763,0.309c0.22,0.024,0.384-0.024,0.461-0.136l0,0c0.077-0.112,0.064-0.283-0.037-0.479
						c-0.111-0.215-0.31-0.429-0.561-0.602C64.211,86.396,63.887,86.285,63.641,86.285z"/>
				</g>
			</g>
			<g>
				<g>
					<path style="fill:#D27A57;" d="M99.961,36.001c-0.087-0.4-0.191-0.797-0.313-1.188c-0.347-1.105-0.835-2.163-1.437-3.152
						c-0.605-0.995-1.324-1.918-2.131-2.757c-0.813-0.846-1.715-1.606-2.683-2.269c-0.967-0.661-2.001-1.228-3.081-1.682
						c-1.081-0.454-2.209-0.797-3.361-1.014c-1.15-0.216-2.324-0.303-3.493-0.247c-1.075,0.051-2.142,0.226-3.176,0.523
						c-2.149,1.794-3.8,4.191-5.6,6.334c-0.245,0.292-0.494,0.58-0.743,0.867c-0.649,0.277-1.279,0.593-1.893,0.942
						c-1.5,0.854-2.872,1.907-4.158,3.055c-2.697,2.409-5.004,5.23-7.294,8.017c-2.516,3.062-4.974,6.172-7.536,9.196
						c-1.289,1.522-2.605,3.022-3.966,4.48c-1.356,1.452-2.782,2.833-4.175,4.249c-2.412,2.452-4.786,4.941-7.186,7.405
						c-0.086-0.016-0.171-0.032-0.257-0.046c-2.208-0.36-4.462-0.239-6.681-0.056c-2.827,0.233-5.686,0.334-8.488,0.786
						c-1.46,0.235-2.912,0.584-4.28,1.154c-0.617,0.257-1.204,0.575-1.798,0.881c-0.596,0.307-1.19,0.619-1.773,0.951
						c-1.137,0.649-2.301,1.396-3.125,2.431c-0.895,1.124-1.472,2.503-2.03,3.814c-0.565,1.329-1.067,2.75-1.86,3.965
						c-0.54,0.826-1.324,1.484-1.968,2.226c-0.542,0.624-1.229,1.455-1.097,2.345c0.158,1.069,1.551,1.593,2.466,1.739
						c0.676,0.108,1.359,0.068,2.023-0.072c-0.338,0.359-0.542,0.854-0.701,1.308c-0.232,0.66-0.355,1.362-0.467,2.051
						c-0.27,1.654-0.475,3.288-0.387,4.97c0.086,1.636,0.371,3.313,1.014,4.829c0.263,0.619,0.599,1.211,1.092,1.677
						c0.489,0.461,1.095,0.706,1.756,0.787c0.789,0.097,1.615-0.002,2.38-0.203c0.468-0.122,0.957-0.288,1.392-0.533
						c0.038,1.062,0.328,2.092,1.031,2.917c0.765,0.898,1.894,1.395,2.987,1.773c1.181,0.409,2.522,0.693,3.757,0.358
						c0.3-0.082,0.584-0.199,0.856-0.341c0.08,0.305,0.202,0.599,0.379,0.868c0.412,0.627,1.099,1.022,1.805,1.229
						c1.808,0.531,4.039,0.343,5.695-0.569c0.741-0.408,1.407-0.973,1.813-1.706c0.367,0.427,0.902,0.592,1.46,0.637
						c0.704,0.057,1.423-0.068,2.107-0.224c0.667-0.152,1.328-0.333,1.968-0.575c1.347-0.51,2.612-1.262,3.708-2.196
						c1.098-0.935,1.969-2.066,2.732-3.284c1.543-2.463,2.581-5.21,3.392-7.99c0.41-1.405,0.768-2.824,1.101-4.249
						c0.338-1.443,0.715-2.893,0.913-4.363c0.212-1.577,0.282-3.222,0.096-4.805c-0.001-0.011-0.003-0.022-0.005-0.033
						c-0.001-0.054,0-0.107-0.001-0.161c-0.006-0.204-0.018-0.412-0.034-0.619c0.349-0.364,0.732-0.694,1.139-1.012
						c0.743-0.58,1.427-1.205,2.121-1.841c1.081-0.991,2.189-1.949,3.31-2.891c0.276-0.206,0.553-0.413,0.834-0.613
						c1.546-1.096,3.148-2.116,4.724-3.168c3.184-2.126,6.357-4.27,9.436-6.546c2.91-2.151,5.735-4.422,8.395-6.877
						c2.436-2.248,4.725-4.667,6.672-7.355c0.635-0.877,1.232-1.787,1.78-2.727c0.48-0.396,0.957-0.795,1.43-1.197
						c1.738-1.48,3.414-3.039,5.002-4.681c1.58-1.635,2.967-3.411,4.252-5.283C99.851,36.161,99.906,36.081,99.961,36.001z"/>
					<path style="fill:#FAD6BE;" d="M23.656,104.957c-0.066,0.608-0.137,1.22-0.143,1.832c-0.014,0.015-0.026,0.032-0.028,0.047
						c-0.046,0.401-0.049,0.815,0.007,1.218c-0.128,0.072-0.26,0.139-0.398,0.195c-1.128,0.454-2.407,0.223-3.53-0.128
						c-1.061-0.331-2.223-0.785-3.002-1.609c-0.559-0.592-0.878-1.322-1.05-2.102c-0.1-0.351-0.141-0.721-0.146-1.084
						c-0.001-0.095,0.003-0.19,0.007-0.285c-0.003,0.006-0.007,0.011-0.01,0.017c-0.002,0.001-0.004,0.002-0.006,0.003
						c-0.012-0.51,0.017-1.02,0.06-1.53c0.011-0.08,0.019-0.161,0.031-0.241c0.138-0.911,0.325-1.813,0.519-2.713
						c0.191-0.881,0.397-1.759,0.594-2.639c0.172-0.767,0.369-1.526,0.639-2.265c0.542-1.482,1.413-2.755,2.34-4.019
						c0.543-0.741,1.11-1.465,1.702-2.168c0.6-0.757,1.233-1.488,1.897-2.19c0.288-0.304,0.587-0.603,0.915-0.865
						c0.202-0.161,0.431-0.331,0.681-0.421c0.455-0.36,0.935-0.698,1.468-0.92c0.693-0.289,1.451-0.338,2.183-0.185
						c0.461,0.097,0.926,0.278,1.176,0.702c0.252,0.427,0.229,0.978,0.186,1.452c-0.067,0.747-0.279,1.467-0.557,2.161
						c-0.396,0.992-0.915,1.929-1.351,2.903c-0.05,0.088-0.101,0.175-0.149,0.265c-0.548,1.011-1.043,2.066-1.466,3.144
						c-0.043,0.015-0.083,0.041-0.099,0.065c-0.285,0.462-0.505,0.971-0.744,1.458c-0.242,0.492-0.476,0.989-0.698,1.49
						c-0.436,0.985-0.758,2.023-0.785,3.107c-0.002,0.099,0.141,0.037,0.152-0.032c0.184-1.103,0.607-2.137,1.075-3.145
						c0.119-0.256,0.243-0.509,0.368-0.762c-0.368,1.359-0.586,2.759-0.775,4.152c-0.02,0.148-0.04,0.296-0.06,0.444
						c-0.057,0.17-0.109,0.341-0.15,0.521c-0.097,0.429-0.163,0.865-0.256,1.295C24.051,103.073,23.761,103.989,23.656,104.957z"/>
					<path style="fill:#FAD6BE;" d="M15.416,101.531c-0.003,0.034-0.005,0.068-0.008,0.102c0.014,0.296,0.037,0.592,0.073,0.887
						c0.122,1.017,0.397,2.071,1.008,2.909c-0.013-0.161-0.029-0.322-0.049-0.482c-0.135-1.09-0.386-2.17-0.357-3.275
						c0.031-1.149,0.321-2.295,0.593-3.407c0.269-1.097,0.549-2.183,0.924-3.249c0.365-1.035,0.792-2.049,1.301-3.022
						c0.491-0.94,1.128-1.811,1.78-2.645c0.679-0.868,1.406-1.697,2.155-2.506c1.073-1.158,2.153-2.353,3.409-3.317
						c0.315-0.242,0.667-0.485,1.04-0.695c-0.37,0.029-0.735,0.113-1.083,0.259c-0.533,0.222-1.014,0.56-1.468,0.92
						c-0.25,0.09-0.479,0.261-0.681,0.421c-0.328,0.261-0.627,0.56-0.915,0.865c-0.664,0.701-1.297,1.433-1.897,2.19
						c-0.592,0.703-1.159,1.427-1.702,2.168c-0.927,1.264-1.797,2.537-2.34,4.019c-0.27,0.739-0.467,1.498-0.639,2.265
						c-0.197,0.88-0.403,1.757-0.594,2.639c-0.195,0.9-0.381,1.803-0.519,2.713C15.436,101.37,15.427,101.451,15.416,101.531z"/>
					<path style="fill:#FAD6BE;" d="M29.563,83.607c-0.25-0.424-0.715-0.605-1.176-0.702c-0.732-0.154-1.49-0.104-2.183,0.185
						c-0.533,0.222-1.014,0.56-1.468,0.92c-0.25,0.09-0.479,0.261-0.681,0.421c-0.057,0.045-0.111,0.093-0.166,0.14
						c0.235-0.151,0.476-0.29,0.729-0.406c0.533-0.243,1.125-0.401,1.713-0.301c0.426,0.072,0.877,0.285,1.136,0.642
						c0.497,0.686,0.079,1.632-0.282,2.277c-0.5,0.895-1.169,1.692-1.833,2.468c-0.257,0.3-0.52,0.595-0.768,0.903
						c-0.411,0.512-0.749,1.091-1.047,1.674c-0.796,1.557-1.245,3.261-1.619,4.961c-0.187,0.848-0.363,1.699-0.54,2.549
						c-0.109,0.525-0.229,1.048-0.382,1.562c-0.303,1.018-0.745,2.144-1.635,2.791c-0.922,0.67-2.331,0.533-3.12-0.287
						c-0.484-0.502-0.73-1.177-0.821-1.877c0,0.001,0,0.003,0,0.004c-0.043,0.51-0.072,1.02-0.06,1.53
						c0.002-0.001,0.004-0.002,0.006-0.003c0.003-0.006,0.007-0.011,0.01-0.017c-0.003,0.095-0.008,0.19-0.007,0.285
						c0.005,0.363,0.046,0.732,0.146,1.084c0.171,0.779,0.49,1.51,1.05,2.102c0.779,0.824,1.941,1.278,3.002,1.609
						c1.123,0.351,2.402,0.582,3.53,0.128c0.138-0.056,0.27-0.123,0.398-0.195c-0.056-0.403-0.052-0.817-0.007-1.218
						c0.002-0.015,0.013-0.032,0.028-0.047c0.006-0.612,0.077-1.224,0.143-1.832c0.105-0.968,0.395-1.885,0.601-2.832
						c0.093-0.43,0.159-0.865,0.256-1.295c0.041-0.18,0.092-0.351,0.15-0.521c0.02-0.148,0.04-0.296,0.06-0.444
						c0.189-1.393,0.407-2.793,0.775-4.152c-0.125,0.253-0.249,0.506-0.368,0.762c-0.468,1.008-0.892,2.043-1.075,3.145
						c-0.012,0.069-0.155,0.131-0.152,0.032c0.027-1.084,0.348-2.121,0.785-3.107c0.222-0.501,0.457-0.998,0.698-1.49
						c0.239-0.487,0.46-0.996,0.744-1.458c0.015-0.025,0.056-0.05,0.099-0.065c0.422-1.078,0.918-2.133,1.466-3.144
						c0.048-0.089,0.1-0.177,0.149-0.265c0.436-0.974,0.955-1.911,1.351-2.903c0.277-0.694,0.489-1.415,0.557-2.161
						C29.791,84.585,29.814,84.034,29.563,83.607z"/>
					<path style="fill:#FAD6BE;" d="M29.563,83.607c-0.25-0.424-0.715-0.605-1.176-0.702c-0.157-0.033-0.316-0.055-0.475-0.069
						c0.038,0.029,0.077,0.059,0.113,0.092c0.723,0.639,0.792,1.656,0.66,2.55c-0.178,1.204-0.849,2.289-1.489,3.299
						c-0.677,1.067-1.344,2.13-1.863,3.286c-1.083,2.408-1.535,5.022-1.888,7.62c-0.178,1.304-0.336,2.611-0.548,3.91
						c-0.097,0.593-0.183,1.198-0.345,1.778c-0.134,0.478-0.325,0.942-0.574,1.371c-0.381,0.656-0.918,1.242-1.589,1.601
						c0.899,0.2,1.846,0.252,2.706-0.094c0.138-0.056,0.27-0.123,0.398-0.195c-0.056-0.403-0.052-0.817-0.007-1.218
						c0.002-0.015,0.013-0.032,0.028-0.047c0.006-0.612,0.077-1.224,0.143-1.832c0.105-0.968,0.395-1.885,0.601-2.832
						c0.093-0.43,0.159-0.865,0.256-1.295c0.041-0.18,0.092-0.351,0.15-0.521c0.02-0.148,0.04-0.296,0.06-0.444
						c0.189-1.393,0.407-2.793,0.775-4.152c-0.125,0.253-0.249,0.506-0.368,0.762c-0.468,1.008-0.892,2.043-1.075,3.145
						c-0.012,0.069-0.155,0.131-0.152,0.032c0.027-1.084,0.348-2.121,0.785-3.107c0.222-0.501,0.457-0.998,0.698-1.49
						c0.239-0.487,0.46-0.996,0.744-1.458c0.015-0.025,0.056-0.05,0.099-0.065c0.422-1.078,0.918-2.133,1.466-3.144
						c0.048-0.089,0.1-0.177,0.149-0.265c0.436-0.974,0.955-1.911,1.351-2.903c0.277-0.694,0.489-1.415,0.557-2.161
						C29.791,84.585,29.814,84.034,29.563,83.607z"/>
					<path style="fill:#FAD6BE;" d="M31.458,109.529c-0.791,0.449-1.691,0.698-2.591,0.793c-0.848,0.089-1.74,0.053-2.571-0.145
						c-0.67-0.16-1.328-0.449-1.773-0.994c-0.082-0.1-0.153-0.206-0.219-0.315c-0.025-0.09-0.046-0.182-0.062-0.279
						c-0.065-0.386-0.123-0.782-0.163-1.171c-0.069-0.683-0.021-1.377,0.048-2.064c0.021-0.062,0.041-0.121,0.054-0.17
						c0.114-0.431,0.237-0.86,0.338-1.294c0.198-0.852,0.337-1.718,0.469-2.582c0.26-1.701,0.476-3.416,0.883-5.09
						c0.205-0.843,0.478-1.668,0.793-2.477c0.254-0.783,0.562-1.548,0.934-2.283c0.257-0.508,0.545-0.999,0.855-1.475
						c0.435-0.753,0.909-1.484,1.429-2.182c0.408-0.548,0.813-1.106,1.246-1.634c0.412-0.501,0.881-0.965,1.493-1.21
						c0.554-0.222,1.206-0.279,1.773-0.07c0.538,0.198,0.946,0.634,1.254,1.103c0.387,0.589,0.658,1.254,0.705,1.962
						c0.047,0.695-0.101,1.382-0.325,2.036c-0.392,1.149-1,2.211-1.428,3.345c-0.108,0.175-0.213,0.352-0.314,0.532
						c-0.59,1.053-1.003,2.186-1.305,3.352c-0.337,1.302-0.565,2.637-0.672,3.977c-0.09,1.125-0.075,2.237-0.01,3.357
						c0.003,0.323,0.013,0.646,0.042,0.972c0.067,0.743,0.187,1.724,0.662,2.381c0.018,0.034,0.033,0.069,0.053,0.103
						C32.647,108.627,32.113,109.157,31.458,109.529z"/>
					<path style="fill:#FAD6BE;" d="M24.68,103.434c-0.025,0.785-0.048,1.573,0.033,2.355c0.069,0.675,0.227,1.336,0.485,1.962
						c0.003-0.107,0.006-0.214,0.01-0.321c0.069-2.066,0.177-4.132,0.419-6.186c0.243-2.056,0.621-4.101,1.221-6.084
						c0.286-0.947,0.653-1.859,1.108-2.738c0.442-0.856,0.952-1.675,1.493-2.471c0.405-0.596,0.816-1.187,1.217-1.785
						c0.414-0.617,0.837-1.229,1.293-1.817c0.438-0.564,0.908-1.113,1.45-1.58c-0.271,0.024-0.539,0.088-0.788,0.188
						c-0.612,0.245-1.081,0.709-1.493,1.21c-0.433,0.528-0.838,1.087-1.246,1.634c-0.52,0.698-0.994,1.429-1.429,2.182
						c-0.311,0.476-0.598,0.967-0.855,1.475c-0.372,0.736-0.68,1.501-0.934,2.283c-0.315,0.809-0.588,1.634-0.793,2.477
						c-0.407,1.674-0.623,3.389-0.883,5.09c-0.09,0.587-0.184,1.174-0.297,1.757C24.687,103.188,24.684,103.311,24.68,103.434z"/>
					<path style="fill:#FAD6BE;" d="M36.354,87.951c-0.047-0.708-0.318-1.373-0.705-1.962c-0.308-0.469-0.716-0.905-1.254-1.103
						c-0.567-0.208-1.219-0.152-1.773,0.07c-0.612,0.245-1.081,0.709-1.493,1.21c-0.433,0.528-0.838,1.087-1.246,1.634
						c-0.257,0.345-0.503,0.699-0.739,1.059c0.308-0.366,0.636-0.714,0.976-1.043c0.366-0.354,0.755-0.69,1.177-0.976
						c0.351-0.238,0.739-0.456,1.157-0.548c0.345-0.076,0.716-0.055,1.014,0.15c0.361,0.248,0.552,0.672,0.665,1.081
						c0.19,0.689,0.065,1.388-0.175,2.049c-0.264,0.728-0.647,1.408-1.044,2.071c-0.171,0.286-0.355,0.566-0.515,0.859
						c-0.23,0.42-0.451,0.845-0.665,1.273c-0.425,0.847-0.815,1.714-1.118,2.613c-0.259,0.768-0.448,1.559-0.579,2.358
						c-0.112,0.683-0.189,1.371-0.281,2.057c-0.184,1.37-0.406,2.79-1.068,4.023c-0.314,0.586-0.735,1.113-1.264,1.52
						c-0.388,0.299-0.87,0.595-1.382,0.552c-0.895-0.076-1.281-1.094-1.453-1.842c-0.065-0.281-0.113-0.573-0.145-0.869
						c-0.084,0.333-0.175,0.665-0.263,0.997c-0.013,0.049-0.033,0.108-0.054,0.17c-0.068,0.687-0.117,1.38-0.048,2.064
						c0.04,0.389,0.098,0.785,0.163,1.171c0.016,0.097,0.037,0.19,0.062,0.279c0.066,0.108,0.137,0.214,0.219,0.315
						c0.445,0.545,1.103,0.835,1.773,0.994c0.831,0.198,1.723,0.234,2.571,0.145c0.901-0.095,1.801-0.344,2.591-0.793
						c0.655-0.372,1.189-0.902,1.599-1.524c-0.02-0.033-0.035-0.069-0.053-0.103c-0.475-0.657-0.595-1.638-0.662-2.381
						c-0.029-0.327-0.039-0.65-0.042-0.972c-0.065-1.12-0.08-2.231,0.01-3.357c0.107-1.34,0.335-2.675,0.672-3.977
						c0.302-1.167,0.715-2.299,1.305-3.352c0.101-0.18,0.206-0.356,0.314-0.532c0.428-1.134,1.036-2.196,1.428-3.345
						C36.252,89.333,36.4,88.646,36.354,87.951z"/>
					<path style="fill:#FAD6BE;" d="M36.354,87.951c-0.047-0.708-0.318-1.373-0.705-1.962c-0.308-0.469-0.716-0.905-1.254-1.103
						c-0.332-0.122-0.693-0.151-1.047-0.111c0.129,0.031,0.257,0.073,0.382,0.131c0.806,0.368,1.309,1.199,1.441,2.053
						c0.088,0.571,0.029,1.16-0.073,1.725c-0.113,0.63-0.304,1.244-0.533,1.84c-0.461,1.202-1.072,2.337-1.597,3.511
						c-0.561,1.256-0.991,2.567-1.26,3.917c-0.276,1.386-0.395,2.8-0.428,4.212c-0.024,1.044,0.008,2.082,0.062,3.124
						c0.042,0.811,0.072,1.629-0.021,2.438c-0.085,0.74-0.27,1.505-0.737,2.102c-0.042,0.053-0.087,0.1-0.133,0.149
						c0.348-0.119,0.686-0.266,1.005-0.448c0.655-0.372,1.189-0.902,1.599-1.524c-0.02-0.033-0.035-0.069-0.053-0.103
						c-0.475-0.657-0.595-1.638-0.662-2.381c-0.029-0.327-0.039-0.65-0.042-0.972c-0.065-1.12-0.08-2.231,0.01-3.357
						c0.107-1.34,0.335-2.675,0.672-3.977c0.302-1.167,0.715-2.299,1.305-3.352c0.101-0.18,0.206-0.356,0.314-0.532
						c0.428-1.134,1.036-2.196,1.428-3.345C36.252,89.333,36.4,88.646,36.354,87.951z"/>
					<path style="fill:#FAD6BE;" d="M99.648,34.813c-0.347-1.105-0.835-2.163-1.437-3.152c-0.605-0.995-1.324-1.918-2.131-2.757
						c-0.813-0.846-1.715-1.606-2.683-2.269c-0.967-0.661-2.001-1.228-3.081-1.682c-1.081-0.454-2.209-0.797-3.361-1.014
						c-1.15-0.216-2.324-0.303-3.493-0.247c-0.773,0.037-1.541,0.138-2.297,0.302c-1.328,0.963-2.458,2.175-3.515,3.424
						c-1.1,1.299-2.143,2.679-3.376,3.86c0.017-0.007,0.034-0.015,0.051-0.022c0.792-0.313,1.62-0.523,2.454-0.688
						c0.087-0.017,0.053,0.088-0.007,0.105c-0.432,0.127-0.852,0.28-1.272,0.44c-3.232,1.233-6.014,3.294-8.462,5.711
						c-2.592,2.559-4.885,5.413-7.182,8.234c-2.486,3.052-4.938,6.132-7.515,9.108c-1.283,1.481-2.596,2.936-3.958,4.345
						c-1.397,1.445-2.842,2.843-4.243,4.285c-1.942,2.001-3.86,4.029-5.848,5.984c0.24,0.015,0.479,0.044,0.718,0.109
						c0.609,0.165,1.26,0.323,1.806,0.644c-0.443-0.089-0.893-0.142-1.346-0.173c-0.205-0.055-0.41-0.108-0.612-0.16
						c-0.554-0.143-1.101-0.098-1.666-0.117c-0.521-0.017-1.033-0.09-1.555-0.054c-0.07,0.005-4.417,0.048-6.574,0.221
						c-2.924,0.233-5.887,0.321-8.745,1.038c-0.705,0.177-1.4,0.394-2.074,0.668c-0.603,0.245-1.175,0.549-1.753,0.847
						c-1.17,0.603-2.348,1.209-3.411,1.99c-0.506,0.371-0.988,0.786-1.381,1.278c-0.42,0.525-0.748,1.136-1.051,1.733
						c-0.67,1.319-1.182,2.712-1.794,4.058c-0.285,0.627-0.579,1.263-0.945,1.848c-0.236,0.378-0.537,0.716-0.837,1.043
						C6.411,84.473,5.649,85.151,5.153,86c-0.183,0.312-0.339,0.687-0.266,1.055c0.085,0.431,0.438,0.73,0.798,0.946
						c1.171,0.704,2.592,0.665,3.858,0.262c1.293-0.411,2.489-1.163,3.511-2.046c0.959-0.83,1.69-1.845,2.378-2.902
						c1.329-2.041,2.724-4.589,5.278-5.222c1.294-0.321,2.641-0.131,3.934,0.089c0.623,0.106,1.268,0.236,1.916,0.316
						c0.215,0.129,0.439,0.243,0.668,0.344c-0.169,0.002-0.339,0-0.51-0.007c-1.412-0.062-2.8-0.372-4.212-0.438
						c-0.675-0.032-1.356,0.005-2.008,0.195c-0.636,0.185-1.203,0.542-1.7,0.975c-1.981,1.727-2.91,4.325-4.7,6.22
						c-0.923,0.977-2.057,1.794-3.258,2.39c-0.53,0.263-1.092,0.484-1.67,0.633c-0.412,0.526-0.593,1.177-0.741,1.819
						c-0.156,0.68-0.245,1.375-0.342,2.065c-0.225,1.609-0.369,3.198-0.236,4.823c0.122,1.494,0.424,3.049,1.041,4.424
						c0.258,0.576,0.609,1.146,1.108,1.543c0.491,0.391,1.074,0.548,1.693,0.579c1.115,0.056,2.273-0.195,3.25-0.747
						c0.007-0.249,0.026-0.497,0.056-0.745c0.105-1.82,0.468-3.613,0.841-5.394c0.347-1.658,0.692-3.291,1.445-4.823
						c0.709-1.442,1.736-2.748,2.722-4.009c1.022-1.308,2.12-2.568,3.347-3.689c0.021-0.019,0.043-0.039,0.064-0.058
						c0.003-0.006,0.005-0.011,0.008-0.017c0.262-0.579,0.445-1.231,0.262-1.86c-0.197-0.676-0.8-1.281-1.437-1.558
						c-1.51-0.656-2.938,0.434-4.062,1.33c-2.554,2.037-4.636,4.629-6.358,7.391c-0.888,1.424-1.75,2.847-2.089,4.512
						c-0.35,1.719-0.393,3.492-0.813,5.198c-0.004,0.016-0.016,0.031-0.032,0.043c-0.034-0.123-0.064-0.247-0.089-0.372
						c0.046-0.337,0.089-0.674,0.123-1.012c0.18-1.766,0.167-3.646,0.814-5.323c0.304-0.789,0.725-1.526,1.16-2.249
						c0.429-0.713,0.865-1.42,1.337-2.105c0.97-1.408,2.044-2.752,3.221-3.993c1.139-1.201,2.396-2.368,3.785-3.277
						c1.269-0.83,2.9-1.09,4.104-0.005c0.499,0.45,0.862,1.018,0.906,1.701c0.022,0.327-0.028,0.647-0.117,0.959
						c0.924-0.777,1.96-1.465,3.17-1.583c1.035-0.101,2.489,0.114,2.863,1.254c0.182,0.555,0.123,1.196,0.032,1.761
						c-0.118,0.732-0.353,1.437-0.643,2.118c0.247-0.337,0.497-0.673,0.75-1.01c0.408-0.545,0.834-1.083,1.379-1.5
						c0.552-0.422,1.211-0.665,1.903-0.72c1.3-0.103,2.237,0.749,2.809,1.838c0.933,1.778,0.354,3.495-0.396,5.185
						c0.147-0.196,0.296-0.391,0.444-0.586c0.319-0.417,0.609-0.851,0.917-1.275c0.271-0.373,0.597-0.694,1.043-0.843
						c0.946-0.317,1.875,0.124,2.322,0.99c0.506,0.979,0.482,2.118,0.276,3.175c-0.217,1.111-0.611,2.173-1.021,3.224
						c-0.183,0.469-0.407,0.908-0.643,1.352c-0.225,0.424-0.549,0.946-0.532,1.445c0.01,0.307,0.181,0.598,0.3,0.872
						c0.122,0.28,0.193,0.569,0.245,0.869c0.108,0.633,0.122,1.295,0.041,1.932c-0.014,0.106-0.217,0.193-0.226,0.048
						c-0.044-0.712-0.095-1.421-0.294-2.11c-0.158-0.549-0.579-1.053-0.532-1.648c0.042-0.541,0.318-1.059,0.558-1.535
						c0.239-0.476,0.451-0.944,0.635-1.443c0.377-1.021,0.771-2.05,0.949-3.129c0.162-0.98,0.176-2.108-0.39-2.971
						c-0.497-0.757-1.552-0.976-2.179-0.243c-0.301,0.352-0.534,0.768-0.817,1.136c-0.364,0.474-0.729,0.948-1.082,1.432
						c-0.319,0.437-0.628,0.883-0.918,1.342c-0.025,0.062-0.048,0.124-0.072,0.186c-0.21,0.32-0.408,0.648-0.584,0.988
						c-0.159,0.306-0.299,0.62-0.43,0.938c0.002-0.009,0.003-0.018,0.005-0.027c-0.017,0.042-0.031,0.085-0.047,0.127
						c-0.163,0.409-0.307,0.826-0.431,1.249c-0.042,0.144-0.079,0.289-0.117,0.434c-0.097,0.356-0.188,0.714-0.268,1.071
						c-0.26,1.154-0.435,2.331-0.546,3.508c-0.016,0.166-0.03,0.333-0.045,0.5c0.017,0.225,0.038,0.449,0.05,0.67
						c0.043,0.777,0.06,1.545,0.156,2.32c0.055,0.444,0.121,0.922,0.24,1.383c0.03,0.284,0.111,0.56,0.258,0.811
						c0.16,0.274,0.392,0.501,0.667,0.654c0.527,0.351,1.256,0.333,1.861,0.264c1.471-0.167,2.948-0.65,4.253-1.34
						c1.236-0.654,2.369-1.528,3.287-2.584c0.883-1.015,1.609-2.188,2.244-3.371c1.32-2.457,2.215-5.126,2.938-7.812
						c0.364-1.352,0.685-2.714,0.996-4.079c0.047-0.207,0.094-0.414,0.139-0.621c0.491-1.541,0.657-3.167,0.659-4.779
						c0.002-1.696,0.112-3.393,0.024-5.088c-0.004-0.081-0.012-0.161-0.017-0.242c0.149,0.436,0.248,0.891,0.312,1.351
						c0.513-0.474,1.086-0.882,1.626-1.323c0.763-0.624,1.46-1.336,2.194-1.993c0.129-0.115,0.26-0.228,0.389-0.343
						c0.268-0.246,0.542-0.486,0.82-0.72c0.619-0.535,1.244-1.063,1.872-1.587c0.376-0.233,0.755-0.462,1.133-0.688
						c0.829-0.496,1.667-0.979,2.479-1.503c0.884-0.572,1.737-1.191,2.575-1.827c0.135-0.103,0.269-0.208,0.404-0.311
						c2.959-1.988,5.898-4.008,8.748-6.15c2.836-2.132,5.589-4.386,8.163-6.83c2.255-2.141,4.366-4.446,6.173-6.979
						c0.669-0.81,1.26-1.685,1.796-2.588c0.858-1.447,1.578-2.971,2.257-4.509c0.09-0.203,0.177-0.407,0.265-0.61
						c-0.478,1.62-1.144,3.181-1.946,4.67c0.596-0.512,1.188-1.029,1.771-1.557c1.642-1.486,3.265-3.016,4.749-4.662
						c1.375-1.525,2.577-3.175,3.726-4.872C99.776,35.246,99.716,35.029,99.648,34.813z"/>
					<path style="fill:#FAD6BE;" d="M5.861,86.08c0.356-0.435,0.749-0.839,1.145-1.237c0.321-0.323,0.653-0.639,0.937-0.996
						c1.052-1.323,1.507-2.991,2.176-4.515c0.595-1.354,1.375-2.625,2.377-3.716c1.842-2.007,4.308-3.258,6.886-4.044
						c1.342-0.409,2.717-0.703,4.098-0.944c1.593-0.279,3.197-0.496,4.805-0.669c3.789-0.408,7.608-0.564,11.415-0.361
						c-0.137-0.11-0.285-0.205-0.438-0.293c-0.134-0.035-0.27-0.071-0.402-0.105c-0.554-0.143-1.101-0.098-1.666-0.117
						c-0.521-0.017-1.033-0.09-1.555-0.054c-0.07,0.005-4.417,0.048-6.574,0.221c-2.924,0.233-5.887,0.321-8.745,1.038
						c-0.705,0.177-1.4,0.394-2.074,0.668c-0.603,0.245-1.175,0.549-1.753,0.847c-1.17,0.603-2.348,1.209-3.411,1.99
						c-0.506,0.371-0.988,0.786-1.381,1.278c-0.42,0.525-0.748,1.136-1.051,1.733c-0.67,1.319-1.182,2.712-1.794,4.058
						c-0.285,0.627-0.579,1.263-0.945,1.848c-0.236,0.378-0.537,0.716-0.837,1.043C6.411,84.473,5.649,85.151,5.153,86
						c-0.183,0.312-0.339,0.687-0.266,1.055c0.025,0.13,0.077,0.246,0.144,0.353C5.214,86.914,5.56,86.449,5.861,86.08z"/>
					<path style="fill:#FAD6BE;" d="M39.25,68.954c0.356,0.096,0.719,0.197,1.062,0.336c0.009-0.224,0.002-0.446-0.004-0.672
						c-0.018-0.723,0.342-1.24,0.798-1.773c0.595-0.697,1.253-1.337,1.921-1.963c0.676-0.632,1.365-1.251,2.02-1.904
						c0.684-0.682,1.329-1.404,1.99-2.108c1.423-1.517,2.849-3.03,4.262-4.557c1.383-1.495,2.733-3.019,4.128-4.503
						c1.347-1.433,2.703-2.858,3.997-4.339c1.267-1.451,2.403-3.001,3.625-4.489c1.211-1.475,2.497-2.893,3.881-4.208
						c1.377-1.308,2.86-2.449,4.423-3.524c1.599-1.1,3.312-1.954,5.157-2.562c0.864-0.284,1.724-0.483,2.624-0.606
						c0.751-0.103,1.53-0.191,2.241-0.469c-2.465-0.413-5,0.207-7.28,1.141c-0.097,0.04-0.169-0.105-0.099-0.171
						c0.886-0.838,2.048-1.251,3.182-1.633c1.085-0.366,2.245-0.714,3.115-1.49c-0.629-0.128-1.282-0.046-1.916-0.162
						c-0.041-0.007-0.079-0.058-0.075-0.098c0.07-0.736,0.617-1.319,1.112-1.822c0.491-0.498,0.975-1.006,1.49-1.48
						c0.568-0.524,1.16-1.02,1.745-1.525c0.258-0.222,0.516-0.448,0.771-0.677c-0.758,0.038-1.512,0.138-2.253,0.299
						c-1.328,0.963-2.458,2.175-3.515,3.424c-1.1,1.299-2.143,2.679-3.376,3.86c0.017-0.007,0.034-0.015,0.051-0.022
						c0.792-0.313,1.62-0.523,2.454-0.688c0.087-0.017,0.053,0.088-0.007,0.105c-0.432,0.127-0.852,0.28-1.272,0.44
						c-3.232,1.233-6.014,3.294-8.462,5.711c-2.592,2.559-4.885,5.413-7.182,8.234c-2.486,3.052-4.938,6.132-7.515,9.108
						c-1.283,1.481-2.596,2.936-3.958,4.345c-1.397,1.445-2.842,2.843-4.243,4.285c-1.875,1.932-3.729,3.888-5.644,5.78
						C38.752,68.693,39.001,68.824,39.25,68.954z"/>
					<path style="fill:#FAD6BE;" d="M32.839,104.046c0.025-1.515,0.209-3.047,0.56-4.521c0.166-0.698,0.371-1.388,0.645-2.051
						c0.246-0.595,0.535-1.171,0.844-1.735c0.647-1.185,1.377-2.324,2.022-3.509c0.527-0.968,1.003-1.977,1.284-3.045
						c-0.097,0.065-0.188,0.144-0.272,0.242c-0.301,0.352-0.534,0.768-0.817,1.136c-0.364,0.474-0.729,0.948-1.082,1.432
						c-0.319,0.437-0.628,0.883-0.918,1.342c-0.025,0.062-0.048,0.124-0.072,0.186c-0.21,0.32-0.408,0.648-0.584,0.988
						c-0.159,0.306-0.299,0.62-0.43,0.938c0.002-0.009,0.003-0.018,0.005-0.027c-0.017,0.042-0.031,0.085-0.047,0.127
						c-0.163,0.409-0.307,0.826-0.431,1.249c-0.042,0.144-0.079,0.289-0.117,0.434c-0.097,0.356-0.188,0.714-0.268,1.071
						c-0.26,1.154-0.435,2.331-0.546,3.508c-0.016,0.166-0.03,0.333-0.045,0.5c0.017,0.225,0.038,0.449,0.05,0.67
						c0.043,0.77,0.06,1.531,0.154,2.298C32.801,104.869,32.832,104.458,32.839,104.046z"/>
					<path style="fill:#FAD6BE;" d="M18.188,82.492c-2.554,2.037-4.636,4.629-6.358,7.391c-0.888,1.424-1.75,2.847-2.089,4.512
						c-0.324,1.592-0.388,3.229-0.729,4.816c0.149,0.699,0.358,1.395,0.676,2.036c0.006-0.13,0.011-0.26,0.019-0.391
						c0.122-2.039,0.43-4.074,1.004-6.036c0.559-1.911,1.375-3.747,2.449-5.425c0.92-1.437,2.047-2.724,3.19-3.986
						c1.126-1.242,2.329-2.456,3.732-3.387c0.587-0.389,1.24-0.738,1.924-0.95C20.587,80.626,19.251,81.645,18.188,82.492z"/>
					<path style="fill:#FAD6BE;" d="M99.648,34.813c-0.347-1.105-0.835-2.163-1.437-3.152c-0.605-0.995-1.324-1.918-2.131-2.757
						c-0.079-0.083-0.163-0.16-0.245-0.241c-0.585,0.524-1.184,1.034-1.79,1.53c-1.013,0.83-2.073,1.648-3.298,2.14
						c-1.174,0.472-2.474,0.618-3.707,0.308c-1.18-0.296-2.243-0.915-3.335-1.429c-1.294-0.609-2.67-0.953-4.096-1.06
						c-0.721-0.054-1.446-0.05-2.167,0.006c-0.511,0.04-1.045,0.076-1.538,0.225c-0.388,0.117-0.768,0.26-1.146,0.41
						c-0.159,0.164-0.32,0.326-0.484,0.484c0.017-0.007,0.034-0.015,0.051-0.022c0.792-0.313,1.62-0.523,2.454-0.688
						c0.087-0.017,0.053,0.088-0.007,0.105c-0.432,0.127-0.852,0.28-1.272,0.44c-2.887,1.102-5.414,2.865-7.665,4.951
						c0.085-0.04,0.168-0.084,0.254-0.123c2.471-1.139,5.216-1.92,7.957-1.586c1.257,0.153,2.507,0.506,3.519,1.294
						c0.868,0.676,1.472,1.63,1.731,2.697c0.303,1.247,0.147,2.544-0.204,3.763c-0.416,1.445-1.119,2.79-1.923,4.054
						c-0.817,1.284-1.733,2.508-2.653,3.719c-0.997,1.312-2.036,2.593-3.112,3.841c-2.174,2.523-4.497,4.905-6.925,7.183
						c-2.389,2.241-4.833,4.433-7.455,6.4c-2.412,1.809-5.033,3.655-8.007,4.375c-1.318,0.319-2.724,0.386-4.025-0.045
						c-1.108-0.367-2.117-0.993-3.118-1.58c-1.462-0.858-3.172-1.889-4.901-1.955c-0.226,0.226-0.45,0.453-0.678,0.678
						c0.24,0.015,0.479,0.044,0.718,0.109c0.609,0.165,1.26,0.323,1.806,0.644c-0.443-0.089-0.893-0.142-1.346-0.173
						c-0.205-0.055-0.41-0.108-0.612-0.16c-0.554-0.143-1.101-0.098-1.666-0.117c-0.521-0.017-1.033-0.09-1.555-0.054
						c-0.016,0.001-0.25,0.004-0.627,0.01c0.69,0.126,1.375,0.282,2.046,0.479c0.418,0.123,0.832,0.266,1.222,0.461
						c0.309,0.154,0.647,0.353,0.832,0.656c0.413,0.676-0.421,1.259-0.976,1.455c-0.782,0.276-1.64,0.31-2.458,0.389
						c-0.402,0.039-0.798,0.11-1.198,0.157c-0.613,0.072-1.229,0.124-1.846,0.154c-2.363,0.114-4.695-0.201-7.048-0.345
						c-2.217-0.136-4.517-0.091-6.571,0.85c-1.639,0.751-2.972,1.983-4.017,3.438c-1.052,1.464-1.838,3.099-2.607,4.724
						c-0.405,0.855-0.795,1.719-1.265,2.541c-0.478,0.836-1.048,1.657-1.815,2.254c-0.631,0.491-1.475,0.874-2.29,0.844
						c-0.622-0.023-1.18-0.319-1.561-0.808c-0.094-0.12-0.175-0.248-0.248-0.38C5.191,85.941,5.171,85.97,5.153,86
						c-0.183,0.312-0.339,0.687-0.266,1.055c0.085,0.431,0.438,0.73,0.798,0.946c1.171,0.704,2.592,0.665,3.858,0.262
						c1.293-0.411,2.489-1.163,3.511-2.046c0.959-0.83,1.69-1.845,2.378-2.902c1.329-2.041,2.724-4.589,5.278-5.222
						c1.294-0.321,2.641-0.131,3.934,0.089c0.623,0.106,1.268,0.236,1.916,0.316c0.215,0.129,0.439,0.243,0.668,0.344
						c-0.169,0.002-0.339,0-0.51-0.007c-1.412-0.062-2.8-0.372-4.212-0.438c-0.675-0.032-1.356,0.005-2.008,0.195
						c-0.636,0.185-1.203,0.542-1.7,0.975c-1.981,1.727-2.91,4.325-4.7,6.22c-0.923,0.977-2.057,1.794-3.258,2.39
						c-0.53,0.263-1.092,0.484-1.67,0.633c-0.412,0.526-0.593,1.177-0.741,1.819c-0.156,0.68-0.245,1.375-0.342,2.065
						c-0.225,1.609-0.369,3.198-0.236,4.823c0.122,1.494,0.424,3.049,1.041,4.424c0.258,0.576,0.609,1.146,1.108,1.543
						c0.491,0.391,1.074,0.548,1.693,0.579c1.115,0.056,2.273-0.195,3.25-0.747c0.007-0.249,0.026-0.497,0.056-0.745
						c0.105-1.82,0.468-3.613,0.841-5.394c0.347-1.658,0.692-3.291,1.445-4.823c0.709-1.442,1.736-2.748,2.722-4.009
						c1.022-1.308,2.12-2.568,3.347-3.689c0.021-0.019,0.043-0.039,0.064-0.058c0.003-0.006,0.005-0.011,0.008-0.017
						c0.262-0.579,0.445-1.231,0.262-1.86c-0.197-0.676-0.8-1.281-1.437-1.558c-1.51-0.656-2.938,0.434-4.062,1.33
						c-0.212,0.169-0.419,0.342-0.624,0.519c0.505-0.262,1.052-0.462,1.622-0.509c0.477-0.039,1.051,0.035,1.446,0.328
						c0.726,0.537,0.232,1.513-0.158,2.096c-0.524,0.783-1.199,1.473-1.898,2.101c-0.481,0.431-0.921,0.91-1.348,1.395
						c-0.493,0.56-0.957,1.146-1.378,1.763c-0.849,1.245-1.503,2.61-1.969,4.042c-0.13,0.399-0.214,0.815-0.311,1.223
						c-0.12,0.508-0.244,1.015-0.396,1.514c-0.278,0.914-0.652,1.955-1.422,2.574c-0.67,0.539-1.865,0.671-2.344-0.186
						c-0.153-0.273-0.222-0.585-0.25-0.9c-0.063,0.383-0.136,0.764-0.229,1.142c-0.004,0.016-0.016,0.031-0.032,0.043
						c-0.034-0.123-0.064-0.247-0.089-0.372c0.046-0.337,0.089-0.674,0.123-1.012c0.18-1.766,0.167-3.646,0.814-5.323
						c0.304-0.789,0.725-1.526,1.16-2.249c0.429-0.713,0.865-1.42,1.337-2.105c0.8-1.161,1.674-2.274,2.615-3.326
						c0.223-0.273,0.463-0.534,0.718-0.782c1.109-1.16,2.329-2.282,3.673-3.161c1.269-0.83,2.9-1.09,4.104-0.005
						c0.499,0.45,0.862,1.018,0.906,1.701c0.022,0.327-0.028,0.647-0.117,0.959c0.924-0.777,1.96-1.465,3.17-1.583
						c1.035-0.101,2.489,0.114,2.863,1.254c0.182,0.555,0.123,1.196,0.032,1.761c-0.118,0.732-0.353,1.437-0.643,2.118
						c0.247-0.337,0.497-0.673,0.75-1.01c0.408-0.545,0.834-1.083,1.379-1.5c0.552-0.422,1.211-0.665,1.903-0.72
						c1.3-0.103,2.237,0.749,2.809,1.838c0.933,1.778,0.354,3.495-0.396,5.185c0.147-0.196,0.296-0.391,0.444-0.586
						c0.319-0.417,0.609-0.851,0.917-1.275c0.271-0.373,0.597-0.694,1.043-0.843c0.946-0.317,1.875,0.124,2.322,0.99
						c0.506,0.979,0.482,2.118,0.276,3.175c-0.217,1.111-0.611,2.173-1.021,3.224c-0.183,0.469-0.407,0.908-0.643,1.352
						c-0.225,0.424-0.549,0.946-0.532,1.445c0.01,0.307,0.181,0.598,0.3,0.872c0.122,0.28,0.193,0.569,0.245,0.869
						c0.108,0.633,0.122,1.295,0.041,1.932c-0.014,0.106-0.217,0.193-0.226,0.048c-0.044-0.712-0.095-1.421-0.294-2.11
						c-0.158-0.549-0.579-1.053-0.532-1.648c0.042-0.541,0.318-1.059,0.558-1.535c0.239-0.476,0.451-0.944,0.635-1.443
						c0.377-1.021,0.771-2.05,0.949-3.129c0.162-0.98,0.176-2.108-0.39-2.971c-0.497-0.757-1.552-0.976-2.179-0.243
						c-0.301,0.352-0.534,0.768-0.817,1.136c-0.307,0.4-0.613,0.801-0.914,1.206c0.22-0.228,0.452-0.442,0.699-0.632
						c0.303-0.234,0.665-0.467,1.063-0.456c0.392,0.011,0.733,0.192,0.868,0.574c0.126,0.354,0.07,0.763-0.009,1.121
						c-0.106,0.484-0.282,0.956-0.481,1.409c-0.477,1.089-1.141,2.084-1.617,3.174c-0.237,0.543-0.422,1.113-0.509,1.701
						c-0.056,0.376-0.055,0.75-0.041,1.129c0.031,0.823,0.09,1.645,0.083,2.469c-0.007,0.836-0.052,1.715-0.343,2.507
						c-0.246,0.671-0.727,1.257-1.477,1.347c-0.774,0.093-1.275-0.565-1.552-1.2c-0.067-0.152-0.124-0.307-0.177-0.464
						c0.019,0.285,0.042,0.57,0.078,0.857c0.055,0.444,0.121,0.922,0.24,1.383c0.03,0.284,0.111,0.56,0.258,0.811
						c0.16,0.274,0.392,0.501,0.667,0.654c0.527,0.351,1.256,0.333,1.861,0.264c1.471-0.167,2.948-0.65,4.253-1.34
						c1.236-0.654,2.369-1.528,3.287-2.584c0.883-1.015,1.609-2.188,2.244-3.371c1.32-2.457,2.215-5.126,2.938-7.812
						c0.364-1.352,0.685-2.714,0.996-4.079c0.047-0.207,0.094-0.414,0.139-0.621c0.491-1.541,0.657-3.167,0.659-4.779
						c0.002-1.696,0.112-3.393,0.024-5.088c-0.004-0.081-0.012-0.161-0.017-0.242c0.149,0.436,0.248,0.891,0.312,1.351
						c0.513-0.474,1.086-0.882,1.626-1.323c0.763-0.624,1.46-1.336,2.194-1.993c0.129-0.115,0.26-0.228,0.389-0.343
						c0.268-0.246,0.542-0.486,0.82-0.72c0.619-0.535,1.244-1.063,1.872-1.587c0.376-0.233,0.755-0.462,1.133-0.688
						c0.829-0.496,1.667-0.979,2.479-1.503c0.884-0.572,1.737-1.191,2.575-1.827c0.135-0.103,0.269-0.208,0.404-0.311
						c2.959-1.988,5.898-4.008,8.748-6.15c2.836-2.132,5.589-4.386,8.163-6.83c2.255-2.141,4.366-4.446,6.173-6.979
						c0.669-0.81,1.26-1.685,1.796-2.588c0.858-1.447,1.578-2.971,2.257-4.509c0.09-0.203,0.177-0.407,0.265-0.61
						c-0.478,1.62-1.144,3.181-1.946,4.67c0.596-0.512,1.188-1.029,1.771-1.557c1.642-1.486,3.265-3.016,4.749-4.662
						c1.375-1.525,2.577-3.175,3.726-4.872C99.776,35.246,99.716,35.029,99.648,34.813z"/>
					<path style="fill:#FAD6BE;" d="M22.25,81.162c-0.304-0.132-0.605-0.191-0.901-0.197c0.5,0.277,0.902,0.7,1.075,1.237
						c0.302,0.941-0.307,1.819-0.927,2.472c-0.884,0.931-1.836,1.79-2.663,2.776c-0.832,0.992-1.57,2.078-2.189,3.216
						c-0.621,1.141-1.114,2.347-1.53,3.576c-0.41,1.211-0.739,2.446-1.047,3.686c-0.289,1.162-0.439,2.368-0.918,3.475
						c-0.412,0.952-1.071,1.771-2.026,2.214c-0.182,0.084-0.37,0.152-0.562,0.202c0.353,0.152,0.735,0.225,1.132,0.245
						c1.115,0.056,2.273-0.195,3.25-0.747c0.007-0.249,0.026-0.497,0.056-0.745c0.105-1.82,0.468-3.613,0.841-5.394
						c0.347-1.658,0.692-3.291,1.445-4.823c0.709-1.442,1.736-2.748,2.722-4.009c1.022-1.308,2.12-2.568,3.347-3.689
						c0.021-0.019,0.043-0.039,0.064-0.058c0.003-0.006,0.005-0.011,0.008-0.017c0.262-0.579,0.445-1.231,0.262-1.86
						C23.491,82.044,22.887,81.439,22.25,81.162z"/>
					<path style="fill:#FAD6BE;" d="M9.543,88.264c1.293-0.411,2.489-1.163,3.511-2.046c0.959-0.83,1.69-1.845,2.378-2.902
						c1.329-2.041,2.724-4.589,5.278-5.222c0.517-0.128,1.043-0.174,1.57-0.17c-0.141-0.062-0.285-0.118-0.435-0.156
						c-0.433-0.11-0.867-0.068-1.304-0.007c-0.948,0.134-1.859,0.463-2.702,0.913c-0.835,0.446-1.606,1.008-2.309,1.641
						c-0.662,0.596-1.235,1.258-1.759,1.976c-0.997,1.368-1.864,2.874-3.155,3.997c-0.497,0.432-1.047,0.807-1.668,1.034
						c-0.582,0.213-1.202,0.336-1.82,0.38c-0.682,0.049-1.51-0.006-2.132-0.351c0.152,0.277,0.418,0.487,0.689,0.65
						C6.855,88.705,8.276,88.666,9.543,88.264z"/>
					<path style="fill:#FAD6BE;" d="M98.802,32.73c-0.515,0.569-1.079,1.097-1.648,1.609c-0.717,0.646-1.434,1.257-2.071,1.987
						c-0.859,0.984-1.683,2.045-2.809,2.74c-0.083,0.051-0.163-0.033-0.15-0.115c0.31-1.985-0.922-3.769-2.118-5.25
						c0.177,1.982,0.154,3.988-0.383,5.918c-0.59,2.117-1.752,3.978-3.01,5.758c-5.138,7.274-12.155,13.002-19.023,18.564
						c-3.742,3.031-7.524,6.016-11.418,8.851c-0.962,0.7-1.919,1.424-2.92,2.067c-0.679,0.436-1.338,1.05-2.138,1.252
						c-0.702,0.177-1.349-0.29-1.891-0.678c-0.677-0.484-1.317-1.061-2.071-1.427c-0.02,0.708,0.305,1.395,0.588,2.026
						c0.31,0.69,0.659,1.388,0.803,2.137c0.145,0.753,0.088,1.565,0.033,2.325c-0.059,0.816-0.17,1.628-0.313,2.434
						c-0.276,1.561-0.787,3.027-1.551,4.418c-0.727,1.322-1.636,2.535-2.618,3.678c-1.01,1.175-2.004,2.466-3.311,3.326
						c-0.076,0.05-0.174-0.033-0.15-0.115c0.016-0.056,0.028-0.113,0.043-0.169c-0.2,0.65-0.441,1.288-0.688,1.922
						c-0.183,0.469-0.407,0.908-0.643,1.352c-0.225,0.424-0.549,0.946-0.532,1.445c0.01,0.307,0.181,0.598,0.3,0.872
						c0.122,0.28,0.193,0.569,0.245,0.869c0.108,0.633,0.122,1.295,0.041,1.932c-0.014,0.106-0.217,0.193-0.226,0.048
						c-0.044-0.712-0.095-1.421-0.294-2.11c-0.158-0.549-0.579-1.053-0.532-1.648c0.042-0.541,0.318-1.059,0.558-1.535
						c0.239-0.476,0.451-0.944,0.635-1.443c0.377-1.021,0.771-2.05,0.949-3.129c0.162-0.98,0.176-2.108-0.39-2.971
						c-0.167-0.255-0.398-0.447-0.654-0.564c0.357,1.158,0.527,2.367,0.396,3.579c-0.135,1.254-0.603,2.406-1.086,3.559
						c-0.423,1.008-0.833,2.057-0.762,3.171c0.038,0.594,0.244,1.156,0.385,1.729c0.286,1.168,0.493,2.363,0.568,3.564
						c0.058,0.93,0.026,2.04-0.267,2.988c0.473-0.182,0.936-0.389,1.376-0.622c1.236-0.654,2.369-1.528,3.287-2.584
						c0.883-1.015,1.609-2.188,2.244-3.371c1.32-2.457,2.215-5.126,2.938-7.812c0.364-1.352,0.685-2.714,0.996-4.079
						c0.047-0.207,0.094-0.414,0.139-0.621c0.491-1.541,0.657-3.167,0.659-4.779c0.002-1.696,0.112-3.393,0.024-5.088
						c-0.004-0.081-0.012-0.161-0.017-0.242c0.149,0.436,0.248,0.891,0.312,1.351c0.513-0.474,1.086-0.882,1.626-1.323
						c0.763-0.624,1.46-1.336,2.194-1.993c0.129-0.115,0.26-0.228,0.389-0.343c0.268-0.246,0.542-0.486,0.82-0.72
						c0.619-0.535,1.244-1.063,1.872-1.587c0.376-0.233,0.755-0.462,1.133-0.688c0.829-0.496,1.667-0.979,2.479-1.503
						c0.884-0.572,1.737-1.191,2.575-1.827c0.135-0.103,0.269-0.208,0.404-0.311c2.959-1.988,5.898-4.008,8.748-6.15
						c2.836-2.132,5.589-4.386,8.163-6.83c2.255-2.141,4.366-4.446,6.173-6.979c0.669-0.81,1.26-1.685,1.796-2.588
						c0.858-1.447,1.578-2.971,2.257-4.509c0.09-0.203,0.177-0.407,0.265-0.61c-0.478,1.62-1.144,3.181-1.946,4.67
						c0.596-0.512,1.188-1.029,1.771-1.557c1.642-1.486,3.265-3.016,4.749-4.662c1.375-1.525,2.577-3.175,3.726-4.872
						c-0.057-0.218-0.117-0.436-0.185-0.652C99.423,34.097,99.138,33.401,98.802,32.73z"/>
					<g>
						<path style="fill:#DE2027;" d="M48.589,81.574c-0.477-4.31-3.739-8.082-8.26-8.304c-2.376-0.117-4.618,0.799-6.919,1.209
							c-1.67,0.298-3.527,0.238-4.881-0.784c-1.413-1.067-2.046-2.517-3.888-3.097c-6.823-2.149-9.814,6.044-9.145,11.274
							c0.107,0.833,0.267,1.655,0.474,2.464c0.484-0.73,1.178-1.339,1.871-1.849c1.352-0.997,3.298-2.047,4.97-1.181
							c0.789,0.409,1.23,1.258,1.13,2.139c-0.046,0.403-0.165,0.786-0.322,1.157c0.495-0.453,1.042-0.85,1.623-1.172
							c0.506-0.28,1.049-0.505,1.615-0.632c0.51-0.115,1.068-0.172,1.582-0.047c0.404,0.098,0.759,0.327,0.998,0.669
							c0.237,0.34,0.339,0.758,0.369,1.166c0.036,0.485-0.044,0.961-0.131,1.436c-0.121,0.657-0.304,1.302-0.518,1.935
							c-0.162,0.479-0.341,0.952-0.529,1.421c0.483-0.799,0.995-1.579,1.554-2.326c0.875-1.17,2.015-2.625,3.658-2.404
							c1.343,0.18,2.224,1.405,2.571,2.629c0.2,0.706,0.236,1.438,0.084,2.158c-0.105,0.497-0.281,0.977-0.469,1.448
							c-0.186,0.463-0.365,0.928-0.549,1.392c-0.031,0.079-0.063,0.158-0.095,0.237c0.016-0.019,0.032-0.038,0.048-0.057
							c0.285-0.337,0.576-0.67,0.841-1.023c0.402-0.534,0.757-1.106,1.175-1.626c0.374-0.465,0.863-0.904,1.46-1.044
							c0.417-0.098,0.824,0.02,1.126,0.322c0.314,0.314,0.495,0.747,0.619,1.166c0.341,1.154,0.25,2.364-0.003,3.526
							c-0.08,0.366-0.177,0.728-0.28,1.087c2.6-0.759,5.105-2.604,6.665-5.402C48.297,87.195,48.891,84.305,48.589,81.574z"/>
						<path style="fill:#7F0605;" d="M40.233,94.999l0.047-0.162c0.12-0.418,0.209-0.761,0.279-1.081
							c0.295-1.355,0.297-2.493,0.005-3.48c-0.152-0.514-0.341-0.872-0.596-1.127c-0.278-0.278-0.657-0.387-1.039-0.297
							c-0.487,0.114-0.961,0.454-1.409,1.012c-0.239,0.297-0.461,0.617-0.676,0.927c-0.16,0.23-0.326,0.469-0.497,0.697
							c-0.219,0.291-0.458,0.572-0.689,0.844l-0.57,0.668l0.304-0.758c0.077-0.195,0.154-0.39,0.23-0.585
							c0.106-0.269,0.212-0.539,0.319-0.808c0.178-0.444,0.358-0.925,0.465-1.433c0.146-0.693,0.118-1.404-0.083-2.113
							c-0.318-1.119-1.139-2.38-2.494-2.562c-1.637-0.219-2.801,1.338-3.572,2.368c-0.516,0.69-1.023,1.448-1.549,2.318
							l-0.166-0.083c0.215-0.538,0.383-0.988,0.527-1.416c0.237-0.704,0.406-1.333,0.514-1.922c0.092-0.499,0.165-0.949,0.13-1.412
							c-0.034-0.456-0.152-0.832-0.353-1.12c-0.221-0.317-0.547-0.536-0.943-0.632c-0.43-0.104-0.934-0.089-1.54,0.047
							c-0.517,0.116-1.052,0.326-1.59,0.623c-0.569,0.314-1.109,0.704-1.605,1.159l-0.314,0.288l0.166-0.392
							c0.172-0.406,0.275-0.776,0.315-1.131c0.097-0.853-0.327-1.657-1.08-2.047c-1.279-0.662-2.918-0.267-4.872,1.174
							c-0.84,0.62-1.445,1.217-1.849,1.826l-0.116,0.174l-0.052-0.203c-0.212-0.827-0.372-1.66-0.476-2.475
							c-0.422-3.297,0.627-8.052,3.4-10.372c1.62-1.354,3.647-1.701,5.864-1.003c1.201,0.378,1.886,1.107,2.611,1.879
							c0.394,0.42,0.802,0.853,1.305,1.233c1.438,1.086,3.41,1.016,4.809,0.767c0.751-0.134,1.511-0.326,2.245-0.511
							c1.516-0.383,3.084-0.778,4.694-0.7c4.323,0.212,7.834,3.739,8.348,8.387c0.301,2.723-0.27,5.618-1.566,7.942
							c-1.475,2.645-3.924,4.629-6.72,5.446L40.233,94.999z M39.192,88.635c0.337,0,0.657,0.132,0.907,0.383
							c0.277,0.278,0.482,0.661,0.643,1.205c0.301,1.018,0.3,2.186-0.002,3.572c-0.061,0.281-0.137,0.58-0.235,0.93
							c2.682-0.831,5.025-2.758,6.448-5.309c1.278-2.291,1.841-5.146,1.544-7.831c-0.504-4.556-3.941-8.014-8.172-8.222
							c-1.583-0.078-3.137,0.315-4.64,0.694c-0.738,0.186-1.5,0.379-2.258,0.514c-1.437,0.256-3.462,0.325-4.954-0.801
							c-0.515-0.389-0.929-0.828-1.328-1.254c-0.708-0.753-1.377-1.465-2.532-1.828c-2.184-0.688-4.098-0.362-5.689,0.968
							c-2.723,2.277-3.751,6.958-3.335,10.206c0.095,0.743,0.237,1.5,0.422,2.254c0.412-0.569,0.995-1.127,1.776-1.703
							c2.016-1.486,3.721-1.886,5.068-1.189c0.822,0.426,1.285,1.302,1.179,2.233c-0.03,0.266-0.094,0.54-0.193,0.828
							c0.427-0.359,0.882-0.673,1.357-0.935c0.553-0.306,1.105-0.522,1.639-0.642c0.635-0.143,1.166-0.158,1.624-0.046
							c0.434,0.105,0.808,0.356,1.052,0.707c0.219,0.315,0.349,0.723,0.386,1.212c0.036,0.485-0.039,0.948-0.133,1.459
							c-0.11,0.598-0.281,1.235-0.521,1.948c-0.057,0.169-0.117,0.341-0.183,0.52c0.35-0.543,0.695-1.041,1.045-1.509
							c0.797-1.065,2-2.674,3.745-2.441c1.444,0.194,2.314,1.52,2.648,2.696c0.21,0.739,0.238,1.48,0.086,2.202
							c-0.11,0.521-0.293,1.011-0.474,1.463c-0.107,0.268-0.213,0.537-0.319,0.806c-0.039,0.098-0.077,0.197-0.116,0.295
							c0.177-0.209,0.354-0.424,0.519-0.643c0.17-0.225,0.334-0.462,0.493-0.691c0.217-0.312,0.441-0.635,0.684-0.938
							c0.475-0.59,0.983-0.952,1.511-1.076C38.988,88.646,39.091,88.635,39.192,88.635z"/>
					</g>
					<path style="opacity:0.68;fill:#FFFFFF;" d="M26.532,73.105c-0.417-0.457-0.874-0.885-1.406-1.206
						c-0.911-0.548-1.975-0.686-3.019-0.585c-1.522,0.147-3.192,0.845-4.059,2.141c-0.052,0.097-0.099,0.2-0.114,0.307
						c-0.003,0.019-0.003,0.043-0.003,0.067c0-0.002,0.01,0.033,0.003,0.021c0.014,0.029,0.007,0.024,0.038,0.037
						c0.008,0.004,0.052,0.012,0.084,0.012c0.049,0,0.095-0.006,0.142-0.015c0.291-0.057,0.569-0.186,0.835-0.311
						c0.31-0.146,0.614-0.307,0.916-0.469c0.212-0.113,0.423-0.243,0.647-0.331c0.497-0.196,1.067-0.271,1.599-0.269
						c0.625,0.002,1.247,0.13,1.826,0.364c0.601,0.243,1.153,0.59,1.644,1.012c0.221,0.19,0.436,0.387,0.651,0.583
						c0.262,0.238,0.525,0.475,0.802,0.695c0.233,0.186,0.493,0.396,0.779,0.492c0.086,0.029,0.172,0.047,0.227,0.009
						c0.01-0.007,0.033-0.04,0.044-0.073c0.017-0.052,0.018-0.109,0.018-0.163c-0.006-0.474-0.333-0.859-0.628-1.199
						C27.226,73.843,26.873,73.478,26.532,73.105z"/>
					<path style="opacity:0.68;fill:#FFFFFF;" d="M37.204,75.442c-0.877-0.207-1.789-0.019-2.657,0.156
						c-0.942,0.19-1.875,0.277-2.836,0.298c-0.306,0.007-0.613,0.016-0.918,0.045c-0.17,0.016-0.391,0.028-0.532,0.113
						c-0.001,0.001-0.003,0.004-0.005,0.006c-0.003,0.007-0.007,0.015-0.01,0.027c-0.009,0.038-0.019,0.072-0.016,0.112
						c0.004,0.056,0.032,0.108,0.075,0.153c0.137,0.14,0.363,0.193,0.547,0.233c0.538,0.117,1.106,0.115,1.653,0.098
						c0.809-0.025,1.556-0.272,2.346-0.432c0.885-0.179,1.778,0.159,2.651-0.029c0.311-0.067,0.462-0.32,0.215-0.556
						c-0.1-0.095-0.233-0.146-0.366-0.184C37.303,75.467,37.253,75.454,37.204,75.442z"/>
					<path style="opacity:0.68;fill:#FFFFFF;" d="M40.849,76.681c-0.005-0.024-0.009-0.048-0.017-0.071
						c-0.002-0.007-0.005-0.014-0.007-0.022c-0.001-0.002-0.001-0.002-0.002-0.004c-0.005-0.01-0.009-0.02-0.015-0.03
						c-0.007-0.012-0.014-0.025-0.021-0.036c-0.004-0.006-0.008-0.012-0.012-0.018c-0.001-0.001-0.004-0.006-0.007-0.009
						c-0.003-0.003-0.007-0.008-0.008-0.01c-0.005-0.006-0.01-0.011-0.015-0.017c-0.002-0.002-0.004-0.004-0.005-0.006
						c-0.044,0.027-0.106,0.025-0.14-0.032c-0.005-0.008-0.009-0.015-0.014-0.022c-0.001-0.002-0.002-0.002-0.003-0.004
						c-0.009-0.01-0.017-0.021-0.027-0.03c-0.005-0.005-0.011-0.01-0.016-0.015c-0.003-0.003-0.004-0.003-0.006-0.005
						c-0.01-0.007-0.02-0.014-0.03-0.02c-0.014-0.008-0.028-0.015-0.043-0.022c0.026,0.013-0.011-0.004-0.021-0.007
						c-0.029-0.009-0.058-0.015-0.087-0.021c-0.001,0-0.001,0-0.001,0c-0.001,0-0.002,0-0.005,0
						c-0.008-0.001-0.016-0.002-0.024-0.002c-0.015-0.001-0.03-0.002-0.045-0.002c-0.032,0-0.063,0.003-0.095,0.006
						c-0.002,0-0.005,0.001-0.007,0.001c-0.008,0.001-0.016,0.003-0.024,0.004c-0.015,0.003-0.03,0.006-0.045,0.01
						c-0.032,0.008-0.063,0.017-0.093,0.029c-0.007,0.003-0.015,0.006-0.022,0.009c0.026-0.01,0.002-0.001-0.004,0.002
						c-0.013,0.006-0.026,0.012-0.039,0.019c-0.027,0.014-0.052,0.03-0.077,0.047c-0.002,0.002-0.002,0.001-0.003,0.002
						c0,0,0,0-0.001,0.001c-0.005,0.004-0.009,0.008-0.014,0.012c-0.01,0.009-0.02,0.019-0.03,0.028
						c-0.005,0.005-0.009,0.01-0.014,0.015c-0.003,0.004-0.004,0.004-0.005,0.006c-0.005,0.008-0.011,0.015-0.015,0.023
						c-0.004,0.006-0.007,0.012-0.01,0.019c0,0.001,0,0.001-0.001,0.002c-0.003,0.011-0.004,0.012-0.003,0.008
						c-0.002,0.007-0.005,0.013-0.006,0.02c-0.001,0.004-0.002,0.009-0.003,0.014c0,0.01,0.001,0.022,0,0.033c0,0,0,0,0,0
						c0.002,0.006,0.003,0.012,0.005,0.019c0.002,0.005,0.004,0.011,0.005,0.016c0,0.001,0,0,0,0.001
						c0.007,0.013,0.013,0.026,0.021,0.038c0.004,0.006,0.008,0.011,0.011,0.016c0.002,0.002,0.004,0.005,0.006,0.007
						c0.024,0.027,0.051,0.052,0.079,0.075c0.001,0.001,0.001,0.001,0.001,0.001c0.001,0.001,0.001,0.001,0.004,0.002
						c0.004,0.003,0.008,0.006,0.011,0.008c0.009,0.007,0.019,0.013,0.029,0.02c0.019,0.013,0.039,0.024,0.059,0.036
						c0.048,0.027,0.097,0.052,0.148,0.074c0.046,0.02,0.078,0.034,0.132,0.052c0.041,0.014,0.082,0.026,0.124,0.034
						c0.01,0.002,0.02,0.004,0.029,0.006c0.004,0.001,0.012,0.002,0.016,0.003c0.015,0.002,0.03,0.003,0.044,0.004
						c0.034,0.002,0.067,0,0.1-0.002c0.002,0,0.002,0,0.003,0c0.001,0,0,0,0.003-0.001c0.006-0.001,0.013-0.002,0.019-0.004
						c0.013-0.003,0.026-0.006,0.039-0.01c0.008-0.002,0.015-0.005,0.023-0.007c0.001,0,0.005-0.002,0.008-0.003
						c0.005-0.002,0.021-0.01,0.026-0.012c0.011-0.006,0.022-0.013,0.033-0.02c0.001-0.001,0.004-0.003,0.007-0.005
						c0.002-0.002,0.005-0.004,0.006-0.005c0.009-0.008,0.018-0.017,0.026-0.026c0.003-0.004,0.007-0.008,0.01-0.011
						c0.011-0.02,0.024-0.038,0.035-0.058c0.001-0.005,0.003-0.009,0.005-0.014c0.004-0.011,0.007-0.023,0.01-0.035
						c0.001-0.006,0.002-0.012,0.004-0.018c0,0,0,0,0-0.001c0-0.01,0.002-0.02,0.002-0.029c0-0.012,0-0.025,0-0.037
						C40.85,76.693,40.849,76.687,40.849,76.681z"/>
					<path style="fill:#DE2027;" d="M48.589,81.574c-0.477-4.31-3.739-8.082-8.26-8.304c-2.376-0.117-4.618,0.799-6.919,1.209
						c-1.67,0.298-3.527,0.238-4.881-0.784c-0.445-0.336-0.813-0.71-1.165-1.083c0.271,0.3,0.547,0.594,0.842,0.871
						c0.785,0.736,1.694,1.329,2.742,1.608c1.372,0.366,2.773,0.135,4.159-0.009c1.536-0.159,3.1-0.292,4.633-0.033
						c1.504,0.255,2.884,0.959,3.96,2.044c0.886,0.893,1.53,2.081,1.545,3.361c0.015,1.329-0.687,2.512-1.692,3.342
						c-0.603,0.498-1.283,0.883-2.052,1.056c-0.721,0.162-1.468,0.142-2.191,0.006c-1.527-0.287-2.939-1.05-4.228-1.892
						c-0.067-0.044-0.068-0.17,0.025-0.187c1.306-0.235,2.449-0.854,3.557-1.547c-1.011,0.134-2.02,0.287-3.036,0.372
						c-0.995,0.084-1.996,0.093-2.987-0.041c-1.012-0.136-1.998-0.421-2.937-0.82c-1.602-0.68-3.037-1.681-4.593-2.453
						c0.278,0.346,0.549,0.699,0.757,1.091c0.285,0.535,0.412,1.113,0.331,1.716c-0.01,0.073-0.126,0.102-0.171,0.045
						c-0.133-0.168-0.277-0.327-0.435-0.473c-1.182-1.094-2.832-1.068-4.341-1.063c-1.383,0.005-2.966-0.01-4.075-0.966
						c-0.864-0.744-1.04-1.895-0.888-2.972c0.018-0.129,0.043-0.257,0.069-0.385c-0.834,2.13-1.118,4.577-0.861,6.587
						c0.107,0.833,0.267,1.655,0.474,2.464c0.484-0.73,1.178-1.339,1.871-1.849c1.352-0.997,3.298-2.047,4.97-1.181
						c0.789,0.409,1.23,1.258,1.13,2.139c-0.046,0.403-0.165,0.786-0.322,1.157c0.495-0.453,1.042-0.85,1.623-1.172
						c0.506-0.28,1.049-0.505,1.615-0.632c0.51-0.115,1.068-0.172,1.582-0.047c0.404,0.098,0.759,0.327,0.998,0.669
						c0.237,0.34,0.339,0.758,0.369,1.166c0.036,0.485-0.044,0.961-0.131,1.436c-0.121,0.657-0.304,1.302-0.518,1.935
						c-0.162,0.479-0.341,0.952-0.529,1.421c0.483-0.799,0.995-1.579,1.554-2.326c0.875-1.17,2.015-2.625,3.658-2.404
						c1.343,0.18,2.224,1.405,2.571,2.629c0.2,0.706,0.236,1.438,0.084,2.158c-0.105,0.497-0.281,0.977-0.469,1.448
						c-0.186,0.463-0.365,0.928-0.549,1.392c-0.031,0.079-0.063,0.158-0.095,0.237c0.016-0.019,0.032-0.038,0.048-0.057
						c0.285-0.337,0.576-0.67,0.841-1.023c0.402-0.534,0.757-1.106,1.175-1.626c0.374-0.465,0.863-0.904,1.46-1.044
						c0.417-0.098,0.824,0.02,1.126,0.322c0.314,0.314,0.495,0.747,0.619,1.166c0.341,1.154,0.25,2.364-0.003,3.526
						c-0.08,0.366-0.177,0.728-0.28,1.087c2.6-0.759,5.105-2.604,6.665-5.402C48.297,87.195,48.891,84.305,48.589,81.574z"/>
					<path style="fill:#B71B1E;" d="M48.194,85.521c-0.466,0.77-1.032,1.488-1.692,2.101c-0.695,0.645-1.53,1.213-2.416,1.556
						c-0.887,0.343-1.801,0.304-2.669-0.078c-0.466-0.205-0.86-0.51-1.364-0.625c-0.434-0.099-0.881-0.124-1.322-0.185
						c-0.38-0.052-0.784-0.128-1.102-0.355c-0.306-0.219-0.387-0.517-0.453-0.875c-0.034-0.184-0.054-0.379-0.12-0.555
						c-0.087-0.231-0.239-0.452-0.387-0.648c-0.323-0.429-0.737-0.794-1.197-1.069c-0.738-0.442-1.622-0.644-2.478-0.636
						c-0.855,0.008-1.743,0.246-2.35,0.878c-0.076,0.079-0.188-0.005-0.171-0.099c0.117-0.639,0.172-1.362-0.108-1.97
						c-0.403-0.875-1.393-1.083-2.271-1.055c-1.094,0.035-2.179,0.367-3.186,0.778c-0.062,0.025-0.131-0.038-0.129-0.098
						c0.013-0.47-0.1-0.929-0.385-1.309c-0.262-0.35-0.638-0.602-1.037-0.772c-0.803-0.344-1.727-0.402-2.58-0.248
						c-0.582,0.105-1.145,0.3-1.673,0.563c-0.454,0.225-0.937,0.49-1.305,0.843c-0.614,0.588-1.068,1.341-1.562,2.026
						c-0.104,0.143-0.209,0.287-0.317,0.428c0.018,0.073,0.034,0.147,0.053,0.22c0.484-0.73,1.178-1.339,1.871-1.849
						c1.352-0.997,3.298-2.047,4.97-1.181c0.789,0.409,1.23,1.258,1.13,2.139c-0.046,0.403-0.165,0.786-0.322,1.157
						c0.495-0.453,1.042-0.85,1.623-1.172c0.506-0.28,1.049-0.505,1.615-0.632c0.51-0.115,1.068-0.172,1.582-0.047
						c0.404,0.098,0.759,0.327,0.998,0.669c0.237,0.34,0.339,0.758,0.369,1.166c0.036,0.485-0.044,0.961-0.131,1.436
						c-0.121,0.657-0.304,1.302-0.518,1.935c-0.162,0.479-0.341,0.952-0.529,1.421c0.483-0.799,0.995-1.579,1.554-2.326
						c0.875-1.17,2.015-2.625,3.658-2.404c1.343,0.18,2.224,1.405,2.571,2.629c0.2,0.706,0.236,1.438,0.084,2.158
						c-0.105,0.497-0.281,0.977-0.469,1.448c-0.186,0.463-0.365,0.928-0.549,1.392c-0.031,0.079-0.063,0.158-0.095,0.237
						c0.016-0.019,0.032-0.038,0.048-0.057c0.285-0.337,0.576-0.67,0.841-1.023c0.402-0.534,0.757-1.106,1.175-1.626
						c0.374-0.465,0.863-0.904,1.46-1.044c0.417-0.098,0.824,0.02,1.126,0.322c0.314,0.314,0.495,0.747,0.619,1.166
						c0.341,1.154,0.25,2.364-0.003,3.526c-0.08,0.366-0.177,0.728-0.28,1.087c2.6-0.759,5.105-2.604,6.665-5.402
						c0.75-1.344,1.261-2.909,1.492-4.529C48.421,85.133,48.309,85.33,48.194,85.521z"/>
					<path style="fill:#7F0605;" d="M24.908,82.341c-0.163-0.442-0.655-0.752-1.03-1.003c-0.449-0.3-0.93-0.543-1.431-0.743
						c-0.618-0.247-1.271-0.399-1.937-0.434c-0.741-0.038-1.47,0.082-2.198,0.198c-0.074,0.012-0.103,0.128-0.008,0.118
						c1.297-0.136,2.69,0.008,3.898,0.51c0.458,0.19,0.909,0.409,1.345,0.645c0.434,0.235,0.804,0.528,1.192,0.827
						C24.802,82.507,24.937,82.417,24.908,82.341z"/>
					<path style="fill:#7F0605;" d="M35.059,84.805c-0.488-0.297-1.021-0.545-1.559-0.738c-0.256-0.091-0.515-0.181-0.778-0.247
						c-0.246-0.062-0.524-0.155-0.78-0.131c-0.037,0.004-0.102,0.053-0.057,0.091c0.169,0.139,0.419,0.187,0.619,0.27
						c0.235,0.097,0.473,0.187,0.706,0.29c0.519,0.228,1.02,0.483,1.507,0.773c0.473,0.282,0.936,0.593,1.353,0.952
						c0.438,0.377,0.778,0.817,1.094,1.297c0.028,0.042,0.11-0.011,0.096-0.054C36.924,86.244,35.985,85.368,35.059,84.805z"/>
					<path style="fill:#7F0605;" d="M41.45,90.434c-0.182-0.428-0.41-0.835-0.668-1.221c-0.246-0.368-0.542-0.71-0.884-0.993
						c-0.161-0.133-0.332-0.255-0.517-0.352c-0.189-0.099-0.383-0.123-0.583-0.18c-0.051-0.014-0.122,0.067-0.059,0.094
						c0.153,0.065,0.297,0.209,0.427,0.31c0.159,0.124,0.31,0.257,0.448,0.405c0.298,0.321,0.554,0.679,0.791,1.047
						c0.237,0.368,0.44,0.759,0.637,1.149c0.176,0.348,0.317,0.721,0.524,1.051c0.075,0.12,0.251-0.036,0.241-0.136
						C41.769,91.203,41.609,90.806,41.45,90.434z"/>
				</g>
				<g>
					<path style="fill:#386698;" d="M85.675,30.785l-5.265,5.279c0,0,0.425,2.06,2.736,2.289l6.631-6.594
						c0,0,1.155-1.147,0.982-1.663C90.585,29.58,88.506,27.286,85.675,30.785z"/>
					<path style="fill:#22446A;" d="M83.18,38.45l-0.044-0.004c-2.351-0.234-2.813-2.341-2.817-2.363l-0.01-0.049l5.297-5.312
						c1.48-1.828,2.737-2.041,3.531-1.898c0.98,0.176,1.612,0.95,1.71,1.242c0.186,0.555-0.882,1.638-1.005,1.759L83.18,38.45z
						 M80.512,36.093c0.079,0.309,0.589,1.941,2.599,2.163l6.6-6.562c0.431-0.428,1.072-1.232,0.96-1.568
						c-0.085-0.253-0.676-0.958-1.567-1.119c-1.069-0.192-2.229,0.443-3.356,1.836l-0.006,0.007L80.512,36.093z"/>
				</g>
				<path style="fill:#386698;" d="M90.759,30.096c-0.173-0.516-2.253-2.811-5.084,0.688l-1.31,1.314
					c0.621,0.05,1.378,0.225,1.665,0.837c0.176,0.375,0.11,0.727-0.147,1.045c-0.294,0.363-1.491,2.039-1.955,2.064
					c-0.51,0.027-1.252-0.792-1.758-0.829c-0.481-0.035-0.888,0.11-1.255,0.343l-0.505,0.506c0,0,0.425,2.06,2.736,2.289
					l6.631-6.594C89.777,31.76,90.932,30.613,90.759,30.096z"/>
				<g>
					<path style="fill:#4A85C5;" d="M82.74,36.125c0.755,0.651,0.937,1.678,0.406,2.295c-0.531,0.617-1.575,0.59-2.33-0.061
						c-0.756-0.651-0.937-1.678-0.406-2.295C80.941,35.447,81.984,35.475,82.74,36.125z"/>
					<path style="fill:#22446A;" d="M82.109,38.958c-0.456,0-0.946-0.177-1.354-0.528c-0.793-0.683-0.979-1.771-0.416-2.426
						c0.275-0.32,0.684-0.49,1.154-0.477c0.462,0.012,0.926,0.2,1.307,0.528l0,0c0.382,0.329,0.636,0.76,0.716,1.214
						c0.082,0.462-0.025,0.892-0.301,1.212C82.942,38.799,82.54,38.958,82.109,38.958z M81.446,35.712
						c-0.394,0-0.736,0.146-0.966,0.413c-0.497,0.577-0.32,1.548,0.396,2.164c0.716,0.616,1.702,0.648,2.199,0.071
						c0.238-0.277,0.33-0.653,0.259-1.058c-0.073-0.412-0.305-0.805-0.655-1.106l0,0c-0.349-0.301-0.772-0.472-1.191-0.483
						C81.474,35.712,81.46,35.712,81.446,35.712z"/>
				</g>
				<path style="fill:#386698;" d="M82.392,36.529c0.556,0.479,0.689,1.234,0.299,1.688c-0.391,0.454-1.158,0.434-1.714-0.045
					c-0.556-0.478-0.689-1.234-0.299-1.688C81.069,36.03,81.837,36.05,82.392,36.529z"/>
				<g>
					<path style="fill:#D11F26;" d="M79.288,40.605c1.063-1.037,2.103-2.076,3.083-3.07c-0.027-0.255-0.164-0.513-0.34-0.674
						c-0.151-0.138-0.327-0.193-0.53-0.169c-0.06,0.007-0.119,0.02-0.177,0.036c-0.981,0.993-2.02,2.029-3.077,3.059
						C78.59,40.065,78.937,40.337,79.288,40.605z"/>
					<path style="fill:#5A0000;" d="M79.295,40.728l-0.064-0.049c-0.385-0.295-0.726-0.563-1.044-0.819l-0.081-0.066l0.075-0.073
						c0.978-0.953,2.013-1.982,3.076-3.058l0.018-0.018l0.024-0.007c0.072-0.02,0.133-0.032,0.19-0.039
						c0.23-0.027,0.434,0.037,0.604,0.193c0.199,0.182,0.341,0.463,0.37,0.733l0.005,0.044l-0.031,0.031
						c-1.058,1.073-2.096,2.106-3.085,3.071L79.295,40.728z M78.386,39.781c0.275,0.221,0.569,0.452,0.894,0.702
						c0.961-0.938,1.967-1.94,2.992-2.98c-0.034-0.211-0.151-0.431-0.305-0.573c-0.13-0.119-0.279-0.166-0.456-0.145
						c-0.042,0.005-0.087,0.014-0.14,0.027C80.341,37.854,79.338,38.853,78.386,39.781z"/>
				</g>
				<g>
					<path style="fill:#FFFFFF;" d="M78.341,30.119c0,0,9.407,0.68,14.873,8.235l3.94-4.014c0,0-7.782-9.144-15.003-8.104
						L78.341,30.119z"/>
					<path style="fill:#D8D9DA;" d="M93.203,38.497l-0.065-0.089c-5.379-7.434-14.711-8.19-14.804-8.196l-0.2-0.014l3.973-4.05
						l0.031-0.004c7.189-1.034,15.009,8.044,15.087,8.136l0.055,0.065L93.203,38.497z M78.543,30.045
						c1.377,0.152,9.68,1.341,14.682,8.165l3.803-3.875c-0.713-0.811-8.073-8.959-14.832-8.013L78.543,30.045z"/>
				</g>
				<path style="fill:#D8D9DA;" d="M87.21,26.934c0.358,0.275,0.66,0.628,0.663,1.07c0.002,0.391-0.355,0.695-0.63,0.923
					c-0.327,0.271-0.68,0.506-0.999,0.786c-0.407,0.358-0.798,0.742-1.254,1.039c-0.221,0.144-0.461,0.267-0.716,0.34
					c-0.281,0.08-0.58,0.076-0.87,0.064c-0.168-0.007-0.336-0.021-0.504-0.038c0.606,0.198,1.25,0.435,1.915,0.717
					c0.219-0.195,0.44-0.39,0.658-0.587c1.235-1.112,2.457-2.25,3.572-3.484C88.448,27.452,87.834,27.171,87.21,26.934z"/>
				<path style="fill:#D8D9DA;" d="M89.778,34.418c-0.198-0.631,0.316-1.181,0.753-1.562c0.238-0.208,0.493-0.394,0.738-0.593
					c0.278-0.227,0.51-0.502,0.775-0.744c0.266-0.243,0.555-0.42,0.916-0.472c0.296-0.043,0.597-0.018,0.887,0.052
					c-0.559-0.479-1.171-0.973-1.83-1.457c-0.077,0.067-0.155,0.134-0.232,0.202c-1.312,1.156-2.609,2.349-3.76,3.67
					c0.713,0.453,1.423,0.967,2.113,1.547C89.986,34.865,89.854,34.658,89.778,34.418z"/>
			</g>
			<g>
				<g>
					<path style="fill:#D11F26;" d="M78.611,40.98l-0.728-0.749c-0.083,0.081-2.05,2.003-4.206,4.825
						c-2.914,3.815-4.667,7.272-5.211,10.278c-0.609,3.361-0.373,6.824-0.146,10.174c0.146,2.153,0.297,4.379,0.216,6.526
						c-0.217,5.761-0.68,9.958-4.801,14.772c0.071,0.207,0.214,0.389,0.418,0.519c0.117,0.074,0.245,0.125,0.377,0.159
						c4.33-5.064,4.832-9.61,5.05-15.41c0.083-2.202-0.07-4.456-0.218-6.636c-0.223-3.286-0.454-6.683,0.131-9.917
						C70.723,48.72,78.532,41.056,78.611,40.98z"/>
					<path style="fill:#5A0000;" d="M64.562,87.586l-0.056-0.014c-0.148-0.038-0.284-0.095-0.403-0.17
						c-0.218-0.138-0.376-0.334-0.457-0.567l-0.018-0.05l0.035-0.04c4.112-4.803,4.561-8.945,4.779-14.715
						c0.081-2.139-0.07-4.36-0.215-6.508c-0.229-3.363-0.464-6.832,0.146-10.205c0.547-3.02,2.306-6.491,5.229-10.317
						c2.155-2.82,4.132-4.754,4.215-4.835l0.067-0.065l0.858,0.882l-0.067,0.065c-0.079,0.076-7.867,7.723-9.092,14.49
						c-0.583,3.222-0.353,6.613-0.13,9.894c0.148,2.182,0.302,4.438,0.219,6.646c-0.22,5.84-0.713,10.367-5.073,15.467
						L64.562,87.586z M63.84,86.824c0.071,0.171,0.195,0.316,0.362,0.421c0.088,0.056,0.187,0.1,0.294,0.132
						c4.285-5.035,4.772-9.524,4.99-15.308c0.083-2.198-0.07-4.449-0.218-6.626c-0.224-3.292-0.455-6.695,0.133-9.939
						c1.175-6.49,8.313-13.761,9.079-14.525l-0.599-0.616c-0.37,0.367-2.177,2.191-4.131,4.75
						c-2.905,3.803-4.653,7.247-5.194,10.238c-0.606,3.35-0.371,6.807-0.144,10.151c0.147,2.161,0.298,4.387,0.216,6.536
						C68.41,77.829,67.958,81.993,63.84,86.824z"/>
				</g>
				<g>
					<path style="fill:#FFFFFF;" d="M69.757,38.856c0,0,8.062,2.11,12.843,8.394l3.618-3.687c0,0-7.146-8.398-13.778-7.443
						L69.757,38.856z"/>
					<path style="fill:#D8D9DA;" d="M82.591,47.392l-0.065-0.085c-4.708-6.187-12.713-8.339-12.793-8.36l-0.155-0.041l2.818-2.872
						l0.031-0.005c6.609-0.951,13.79,7.39,13.862,7.475l0.055,0.065L82.591,47.392z M69.933,38.809
						c1.132,0.331,8.285,2.6,12.676,8.299l3.483-3.549c-0.68-0.773-7.415-8.215-13.607-7.352L69.933,38.809z"/>
				</g>
				<path style="fill:#D8D9DA;" d="M76.278,41.437c1.15-1.151,2.43-2.159,3.62-3.266c-0.191-0.117-0.384-0.233-0.581-0.345
					c-0.014,0.013-0.029,0.025-0.044,0.037c-0.888,0.779-1.74,1.598-2.609,2.398c-0.2,0.184-0.396,0.37-0.594,0.555
					c-0.146,0.137-0.299,0.278-0.477,0.375c-0.049,0.027-0.099,0.048-0.148,0.065c0.214,0.119,0.43,0.244,0.648,0.372
					C76.156,41.566,76.215,41.5,76.278,41.437z"/>
				<path style="fill:#D8D9DA;" d="M78.886,43.49c-0.108-0.244-0.162-0.505-0.065-0.762c0.104-0.276,0.297-0.514,0.488-0.735
					c0.422-0.486,0.912-0.908,1.363-1.366c0.273-0.278,0.622-0.485,1.012-0.538c0.358-0.048,0.714,0.034,1.044,0.173
					c0.051,0.022,0.1,0.047,0.149,0.07c-0.558-0.465-1.166-0.94-1.818-1.398c-0.045,0.046-0.092,0.089-0.136,0.135
					c-0.706,0.728-1.368,1.492-2.149,2.141c-0.475,0.395-0.967,0.784-1.409,1.22c0.519,0.347,1.041,0.725,1.557,1.131
					C78.911,43.538,78.897,43.515,78.886,43.49z"/>
			</g>
		</g>
	</g>
	<g>
		<g>
			<path style="fill:#CD1E25;" d="M284.563,36.788c-3.588-9.228-15.177-13.688-24.345-10.865c-4.962,1.528-9.053,4.97-12.275,9.206
				c-2.889-4.47-6.706-8.214-11.536-10.116c-8.926-3.514-20.821,0.049-25.103,8.976c-2.891,6.027-2.402,13.205-0.626,19.474
				c3.822,13.486,13.691,24.797,25.856,31.685c2.992,1.694,6.122,3.117,9.336,4.242c3.29-0.877,6.52-2.057,9.632-3.517
				c12.655-5.939,23.359-16.464,28.198-29.619C285.95,50.137,286.985,43.018,284.563,36.788z"/>
			<path style="fill:#790405;" d="M245.87,89.668c-0.031,0-0.062-0.005-0.092-0.016c-3.222-1.128-6.378-2.562-9.381-4.263
				c-12.839-7.269-22.311-18.878-25.987-31.851c-1.49-5.257-2.587-12.937,0.642-19.671c2.06-4.296,5.957-7.597,10.972-9.297
				c4.789-1.623,10.068-1.556,14.485,0.182c4.404,1.734,8.256,5.062,11.453,9.894c3.557-4.575,7.651-7.599,12.174-8.991
				c4.536-1.397,9.806-1.06,14.456,0.924c4.871,2.077,8.504,5.667,10.23,10.107l0,0c2.707,6.961,1.026,14.534-0.86,19.662
				c-4.655,12.654-14.985,23.507-28.341,29.775c-3.124,1.466-6.381,2.655-9.679,3.534C245.918,89.665,245.894,89.668,245.87,89.668z
				 M229.132,23.957c-2.322,0-4.68,0.38-6.93,1.142c-4.872,1.651-8.653,4.851-10.648,9.01c-1.741,3.63-3.26,9.921-0.609,19.278
				c3.636,12.833,13.013,24.321,25.725,31.518c2.949,1.67,6.047,3.08,9.209,4.193c3.238-0.868,6.435-2.038,9.503-3.478
				c13.225-6.207,23.451-16.946,28.055-29.463c3.358-9.127,2.323-15.515,0.864-19.268c-1.672-4.299-5.198-7.778-9.929-9.796
				c-4.532-1.933-9.661-2.262-14.074-0.904c-4.512,1.389-8.595,4.454-12.135,9.108c-0.055,0.072-0.134,0.114-0.233,0.11
				c-0.091-0.004-0.174-0.051-0.223-0.127c-3.174-4.911-7.012-8.279-11.405-10.008C234.079,24.396,231.627,23.957,229.132,23.957z"
				/>
		</g>
		<path style="fill:#B01A1F;" d="M219.238,65.427c0.928,0.805,1.908,1.547,2.941,2.2c1.044,0.661,2.157,1.247,3.342,1.61
			c1.514,0.463,3.123,0.665,4.704,0.615c3.036-0.095,5.922-1.191,8.501-2.746c5.41-3.262,9.413-8.221,14.074-12.383
			c5.19-4.634,11.824-8.81,19.08-8.026c1.702,0.184,3.351,0.57,4.869,1.383c1.481,0.793,2.818,1.949,3.714,3.379
			c0.385,0.615,0.667,1.256,0.872,1.913c1.331-4.825,1.664-10.072-0.161-14.765c-3.264-8.393-13.804-12.449-22.143-9.882
			c-4.513,1.389-8.234,4.521-11.165,8.373c-2.628-4.065-6.099-7.471-10.493-9.201c-8.119-3.196-18.938,0.044-22.832,8.164
			c-2.629,5.482-2.185,12.01-0.569,17.712C215.146,57.909,216.945,61.819,219.238,65.427z"/>
		<path style="fill:#FFFFFF;" d="M230.657,30.304c-0.28-0.563-0.731-1.028-1.305-1.291c-1.202-0.551-2.653-0.273-3.858,0.12
			c-0.223,0.073-0.445,0.154-0.665,0.239c-0.006,0.002-0.011,0.005-0.017,0.007c-1.106,0.533-2.115,1.282-2.941,2.185
			c-0.919,1.005-1.625,2.245-1.877,3.593c-0.121,0.65-0.137,1.348,0.106,1.973c0.258,0.665,0.802,1.129,1.451,1.4
			c1.496,0.625,3.24,0.018,4.567-0.685c1.18-0.625,2.233-1.47,3.109-2.477c0.798-0.918,1.505-2.016,1.69-3.227
			C231.013,31.515,230.94,30.875,230.657,30.304z"/>
		<path style="fill:#FFFFFF;" d="M217.994,39.891c-0.277-0.15-0.595-0.209-0.905-0.151c-0.65,0.121-1.163,0.653-1.542,1.161
			c-0.07,0.094-0.137,0.191-0.203,0.289c-0.002,0.002-0.003,0.005-0.005,0.008c-0.298,0.536-0.495,1.133-0.572,1.74
			c-0.086,0.675-0.017,1.386,0.268,2.009c0.138,0.301,0.333,0.59,0.612,0.776c0.297,0.198,0.653,0.23,0.996,0.154
			c0.791-0.176,1.329-0.926,1.669-1.596c0.302-0.596,0.489-1.244,0.557-1.908c0.062-0.605,0.034-1.258-0.239-1.806
			C218.488,40.283,218.274,40.043,217.994,39.891z"/>
	</g>
</g>
</svg>
